<?xml version="1.0" encoding="UTF-8"?>
<svg width="65px" height="54px" viewBox="0 0 65 54" version="1.1" xmlns="http://www.w3.org/2000/svg" xmlns:xlink="http://www.w3.org/1999/xlink">
    <!-- Generator: Sketch 49.3 (51167) - http://www.bohemiancoding.com/sketch -->
    <title>Page 1</title>
    <desc>Created with Sketch.</desc>
    <defs>
        <polygon id="path-1" points="3.38541667e-05 0 64.858151 0 64.858151 53.6202604 3.38541667e-05 53.6202604"></polygon>
    </defs>
    <g id="Page-1" stroke="none" stroke-width="1" fill="none" fill-rule="evenodd">
        <g id="Desktop-HD-Copy-8" transform="translate(-960.000000, -1655.000000)">
            <g id="вы-нам-подходите" transform="translate(0.000000, 1531.000000)">
                <g id="Group-3" transform="translate(100.000000, 40.000000)">
                    <g id="Group-19" transform="translate(860.000000, 84.000000)">
                        <g id="Page-1">
                            <mask id="mask-2" fill="white">
                                <use xlink:href="#path-1"></use>
                            </mask>
                            <g id="Clip-2"></g>
                            <path d="M51.3578203,28.3484635 L36.2598776,28.3484635 C35.6989141,28.3484635 35.2442526,27.8938021 35.2442526,27.3328385 C35.2442526,26.771875 35.6989141,26.3172135 36.2598776,26.3172135 L51.3578203,26.3172135 C51.9187839,26.3172135 52.3734453,26.771875 52.3734453,27.3328385 C52.3734453,27.8938021 51.9187839,28.3484635 51.3578203,28.3484635 Z M55.8441745,31.73625 L36.2598776,31.73625 C35.6989141,31.73625 35.2442526,31.2815885 35.2442526,30.720625 C35.2442526,30.1596615 35.6989141,29.705 36.2598776,29.705 L55.8441745,29.705 C56.405138,29.705 56.8597995,30.1596615 56.8597995,30.720625 C56.8597995,31.2815885 56.405138,31.73625 55.8441745,31.73625 Z M48.0560234,41.3020833 L36.2598776,41.3020833 C35.6989141,41.3020833 35.2442526,40.8474219 35.2442526,40.2864583 C35.2442526,39.7254948 35.6989141,39.2708333 36.2598776,39.2708333 L48.0560234,39.2708333 C48.616987,39.2708333 49.0716484,39.7254948 49.0716484,40.2864583 C49.0716484,40.8474219 48.616987,41.3020833 48.0560234,41.3020833 Z M18.2437057,26.1848437 C16.8831068,26.1848437 15.7337578,27.7499219 15.7337578,29.6024219 C15.7337578,31.4549219 16.8831068,33.0196615 18.2437057,33.0196615 C19.6039661,33.0196615 20.7533151,31.4545833 20.7533151,29.6024219 C20.7533151,27.7502604 19.6039661,26.1848437 18.2437057,26.1848437 Z M10.7886797,42.7950521 L25.2403464,42.7950521 L25.2403464,38.0876302 C25.2403464,36.6098958 24.0381849,35.4073958 22.560112,35.4073958 L13.4689141,35.4073958 C11.9911797,35.4073958 10.7886797,36.6098958 10.7886797,38.0876302 L10.7886797,42.7950521 Z M26.2559714,44.8263021 L9.77305469,44.8263021 C9.21209115,44.8263021 8.75742969,44.3716406 8.75742969,43.8106771 L8.75742969,38.0876302 C8.75742969,35.4896615 10.8709453,33.3761458 13.4689141,33.3761458 L14.971362,33.3761458 C14.1862839,32.3960677 13.7028464,31.065599 13.7028464,29.6024219 C13.7028464,26.5978646 15.7398516,24.1535937 18.2440443,24.1535937 C20.7478984,24.1535937 22.7849036,26.5978646 22.7849036,29.6024219 C22.7849036,31.0659375 22.3014661,32.3964062 21.516388,33.3761458 L22.5604505,33.3761458 C25.1580807,33.3761458 27.2719349,35.4896615 27.2719349,38.0876302 L27.2719349,43.8106771 C27.2715964,44.3716406 26.8165964,44.8263021 26.2559714,44.8263021 Z M51.5599297,44.8263021 L36.2602161,44.8263021 C35.6992526,44.8263021 35.2445911,44.3716406 35.2445911,43.8106771 C35.2445911,43.2497135 35.6992526,42.7950521 36.2602161,42.7950521 L51.5599297,42.7950521 C52.1208932,42.7950521 52.5755547,43.2497135 52.5755547,43.8106771 C52.5755547,44.3716406 52.1208932,44.8263021 51.5599297,44.8263021 Z M16.9396432,18.2457031 L47.9727422,18.2457031 L47.9727422,9.676875 L39.0982109,9.676875 C38.8043568,9.676875 38.5250599,9.54958333 38.3317526,9.32817708 C38.1391224,9.10643229 38.0517786,8.81223958 38.0920651,8.52143229 C38.1343828,8.21572917 38.1546953,7.96419271 38.1546953,7.73026042 C38.1546953,4.58791667 35.5983672,2.03158854 32.4560234,2.03158854 C29.3136797,2.03158854 26.7573516,4.58791667 26.7573516,7.73026042 C26.7573516,7.96385417 26.7773255,8.21572917 26.8196432,8.52210938 C26.8599297,8.81291667 26.7722474,9.10710937 26.5796172,9.32851562 C26.386987,9.54992188 26.1073516,9.67721354 25.8138359,9.67721354 L16.9396432,9.67721354 L16.9396432,18.2457031 Z M6.32196094,16.0292708 C3.95623177,16.0292708 2.03128385,17.9542187 2.03128385,20.3199479 L2.03128385,47.2983333 C2.03128385,49.6640625 3.95623177,51.5890104 6.32196094,51.5890104 L58.5362578,51.5890104 C60.9023255,51.5890104 62.8269349,49.6640625 62.8269349,47.2983333 L62.8269349,20.3199479 C62.8269349,17.9542187 60.9016484,16.0292708 58.5362578,16.0292708 L50.0036536,16.0292708 L50.0036536,19.2613281 C50.0036536,19.8222917 49.5489922,20.2769531 48.9880286,20.2769531 L15.8701901,20.2769531 C15.3092266,20.2769531 14.8545651,19.8222917 14.8545651,19.2613281 L14.8545651,16.0292708 L6.32196094,16.0292708 Z M58.5362578,53.6202604 L6.32196094,53.6202604 C2.8359974,53.6202604 3.38541667e-05,50.7842969 3.38541667e-05,47.2986719 L3.38541667e-05,20.3199479 C3.38541667e-05,16.8339844 2.8359974,13.9980208 6.32196094,13.9980208 L14.9083932,13.9980208 L14.9083932,8.66125 C14.9083932,8.10028646 15.3630547,7.645625 15.9240182,7.645625 L24.7264401,7.645625 C24.7718047,3.42197917 28.2215443,0 32.4560234,0 C36.6905026,0 40.1402422,3.42197917 40.1856068,7.645625 L48.9880286,7.645625 C49.5489922,7.645625 50.0036536,8.10028646 50.0036536,8.66125 L50.0036536,13.9983594 L58.5362578,13.9983594 C62.0222214,13.9983594 64.8581849,16.8343229 64.8581849,20.3202865 L64.8581849,47.2986719 C64.8585234,50.7842969 62.0222214,53.6202604 58.5362578,53.6202604 Z" id="Fill-1" fill="#FBCE20" mask="url(#mask-2)"></path>
                        </g>
                    </g>
                </g>
            </g>
        </g>
    </g>
</svg>