<?xml version="1.0" encoding="UTF-8"?>
<svg width="62px" height="62px" viewBox="0 0 62 62" version="1.1" xmlns="http://www.w3.org/2000/svg" xmlns:xlink="http://www.w3.org/1999/xlink">
    <!-- Generator: Sketch 51.2 (57519) - http://www.bohemiancoding.com/sketch -->
    <title>Group 34</title>
    <desc>Created with Sketch.</desc>
    <defs>
        <polygon id="path-1" points="0 0.0878004246 61.7806306 0.0878004246 61.7806306 61.8683389 0 61.8683389"></polygon>
    </defs>
    <g id="Page-1" stroke="none" stroke-width="1" fill="none" fill-rule="evenodd">
        <g id="Desktop-HD-Copy-9" transform="translate(-530.000000, -1715.000000)">
            <g id="вы-нам-подходите" transform="translate(0.000000, 1599.000000)">
                <g id="Group-3" transform="translate(100.000000, 40.000000)">
                    <g id="Group-6" transform="translate(430.000000, 76.000000)">
                        <g id="Group-34">
                            <g id="Page-1">
                                <path d="M16.8492569,29.6178344 C16.8492569,28.8417155 16.2212272,28.2136858 15.4451083,28.2136858 C14.6689894,28.2136858 14.0409597,28.8417155 14.0409597,29.6178344 C14.0409597,33.3049257 18.107949,38.3674692 18.5714352,38.9337622 C18.8498429,39.2711423 19.2529087,39.4466115 19.6587389,39.4466115 C19.9713715,39.4466115 20.2867686,39.3423567 20.5485902,39.1284501 C21.1477919,38.6361359 21.2341444,37.7518132 20.7432781,37.1511635 C19.2379023,35.316569 16.8492569,31.6498811 16.8492569,29.6178344" id="Fill-1" fill="#FBCE20"></path>
                                <path d="M46.3354565,28.2136858 C45.5593376,28.2136858 44.9313079,28.8417155 44.9313079,29.6178344 C44.9313079,31.6430361 42.5427941,35.3138047 41.037155,37.1526115 C40.5462887,37.7518132 40.6339575,38.6362675 41.2332909,39.1284501 C41.4937962,39.3423567 41.8091932,39.4466115 42.1231423,39.4466115 C42.5289724,39.4466115 42.9307219,39.2711423 43.2091295,38.9337622 C43.6726157,38.3674692 47.7396051,33.3050573 47.7396051,29.6178344 C47.7396051,28.8417155 47.1115754,28.2136858 46.3354565,28.2136858" id="Fill-3" fill="#FBCE20"></path>
                                <path d="M30.8903482,28.2136858 C30.1142293,28.2136858 29.4861996,28.8417155 29.4861996,29.6178344 L29.4861996,38.0424628 C29.4861996,38.8185817 30.1142293,39.4466115 30.8903482,39.4466115 C31.6664671,39.4466115 32.2944968,38.8185817 32.2944968,38.0424628 L32.2944968,29.6178344 C32.2943652,28.8417155 31.6663355,28.2136858 30.8903482,28.2136858" id="Fill-5" fill="#FBCE20"></path>
                                <g id="Group-33">
                                    <g id="Group-9" transform="translate(0.000000, 0.043834)">
                                        <mask id="mask-2" fill="white">
                                            <use xlink:href="#path-1"></use>
                                        </mask>
                                        <g id="Clip-8"></g>
                                        <path d="M51.4170212,32.7071456 C51.3430425,32.73729 51.2730127,32.7729631 51.2071953,32.8154811 C51.0302781,32.9251329 50.8850849,33.070721 50.7767495,33.2377656 C50.6670977,33.4036255 50.5928556,33.5956807 50.5628429,33.8014259 C50.5503376,33.8794854 50.5463885,33.9576764 50.5477049,34.0371839 L50.5477049,47.8272476 L11.2491826,47.8272476 L11.2672166,34.0562709 C11.2684013,33.9795278 11.2644522,33.9013367 11.2535265,33.82591 C11.2233822,33.6133197 11.1450594,33.4158675 11.0311953,33.244479 C10.9241762,33.0840161 10.78438,32.94422 10.6143079,32.8372008 C10.5444098,32.7933665 10.470431,32.7549291 10.3935563,32.7233367 C5.78515287,30.7080076 2.80809979,26.1692391 2.80809979,21.1493452 C2.80809979,14.1808611 8.47669002,8.51240255 15.4450425,8.51240255 C15.7173949,8.51240255 16.0048854,8.54531125 16.2869788,8.56755754 C14.8663758,11.0365002 14.0410255,13.8895533 14.0410255,16.937031 C14.0410255,17.7131499 14.6689236,18.3411796 15.4450425,18.3411796 C16.2211614,18.3411796 16.8491911,17.7131499 16.8491911,16.937031 C16.8491911,9.19519236 23.1484437,2.8959397 30.8902824,2.8959397 C38.6322527,2.8959397 44.931242,9.19519236 44.931242,16.937031 C44.931242,17.7131499 45.5592718,18.3411796 46.3353907,18.3411796 C47.1116412,18.3411796 47.7395393,17.7131499 47.7395393,16.937031 C47.7395393,13.8895533 46.914189,11.0366318 45.4934544,8.56755754 C45.7756794,8.54531125 46.0630382,8.51240255 46.3353907,8.51240255 C53.3038747,8.51240255 58.9723333,14.1809928 58.9723333,21.1493452 C58.9723333,26.1514684 56.0077856,30.6845766 51.4170212,32.7071456 Z M50.5477049,56.1395915 C50.5477049,57.7493537 49.2368854,59.0603049 47.6271231,59.0603049 L14.1588386,59.0603049 C13.3786391,59.0603049 12.6450382,58.7558335 12.0925669,58.2033622 C11.5411486,57.6507592 11.2369406,56.9171584 11.2382569,56.1356425 L11.2456285,50.6355448 L50.5477049,50.6355448 L50.5477049,56.1395915 Z M46.3353907,5.70423694 C45.4846348,5.70423694 44.5954416,5.81678471 43.6718917,5.98830488 C40.5795265,2.38335372 36.0016624,0.0877740977 30.8902824,0.0877740977 C25.779034,0.0877740977 21.2011699,2.38335372 18.108673,5.98817325 C17.1851231,5.81678471 16.2959299,5.70410531 15.4451741,5.70410531 C6.92853291,5.70423694 -6.58174098e-05,12.6328357 -6.58174098e-05,21.1493452 C-6.58174098e-05,26.9851117 3.29080467,32.2902582 8.45747134,34.9134769 L8.4300913,56.1326149 C8.42890658,57.664186 9.02376433,59.1040076 10.1056709,60.1873622 C11.1888938,61.2719015 12.6272675,61.8683389 14.1589703,61.8683389 L47.6271231,61.8683389 C50.7863588,61.8683389 53.3560021,59.2988272 53.3560021,56.1395915 L53.3560021,34.8928102 C58.5034501,32.2628781 61.7806306,26.965893 61.7806306,21.1493452 C61.7804989,12.6328357 54.8520318,5.70423694 46.3353907,5.70423694 Z" id="Fill-7" fill="#FBCE20" mask="url(#mask-2)"></path>
                                    </g>
                                </g>
                            </g>
                        </g>
                    </g>
                </g>
            </g>
        </g>
    </g>
</svg>