<?xml version="1.0" encoding="UTF-8"?>
<svg width="45px" height="43px" viewBox="0 0 45 43" version="1.1" xmlns="http://www.w3.org/2000/svg" xmlns:xlink="http://www.w3.org/1999/xlink">
    <!-- Generator: Sketch 49.3 (51167) - http://www.bohemiancoding.com/sketch -->
    <title>Page 1</title>
    <desc>Created with Sketch.</desc>
    <defs>
        <polygon id="path-1" points="0 0 14.2385923 0 45 0 45 43 0 43"></polygon>
    </defs>
    <g id="Page-1" stroke="none" stroke-width="1" fill="none" fill-rule="evenodd">
        <g id="Desktop-HD-Copy-8" transform="translate(-100.000000, -720.000000)">
            <g id="ваши-задачи" transform="translate(0.000000, 363.000000)">
                <g id="Group-16" transform="translate(100.000000, 40.000000)">
                    <g id="Group-17" transform="translate(0.000000, 317.000000)">
                        <g id="Page-1">
                            <mask id="mask-2" fill="white">
                                <use xlink:href="#path-1"></use>
                            </mask>
                            <g id="Clip-2"></g>
                            <path d="M43.49855,40.4689326 L32.5594147,29.6551806 L43.49855,18.8414287 L43.49855,40.4689326 Z M2.56041465,41.5172423 L14.0290324,30.1800769 L18.7853738,25.4781595 C20.8371179,23.4549366 24.1583822,23.4549366 26.2101263,25.4781595 L30.9664678,30.1800769 L42.4379917,41.5172423 L2.56041465,41.5172423 Z M1.49995,18.8414287 L12.4390854,29.6551806 L1.49995,40.4689326 L1.49995,18.8414287 Z M2.9999,15.8759133 L2.9999,18.227567 L1.81043965,17.0517401 L2.9999,15.8759133 Z M14.6890104,27.4310441 L13.49955,28.6068709 L12.3100897,27.4310441 L14.6890104,27.4310441 Z M21.749275,22.1049784 C22.9185798,21.6977761 23.5326218,20.4307596 23.1207918,19.2748573 C22.8039274,18.3855734 21.9531745,17.7912655 20.9993,17.793119 C20.5851263,17.793119 20.249325,17.4610739 20.249325,17.0517401 C20.249325,16.6423137 20.5851263,16.3103613 20.9993,16.3103613 C21.4134737,16.3103613 21.749275,16.6423137 21.749275,17.0517401 L23.249225,17.0517401 C23.2452877,16.1125985 22.6450264,15.2770645 21.749275,14.9640173 L21.749275,14.0862247 L31.5739475,14.0862247 C31.8767499,15.5412734 33.0269304,16.6782705 34.49885,16.9776022 L34.49885,20.0913934 C33.0269304,20.3907251 31.8767499,21.5277223 31.5739475,22.982771 L25.079164,22.982771 C24.0259179,22.5553661 22.8807061,22.396989 21.749275,22.5223747 L21.749275,22.1049784 Z M20.249325,22.1049784 L20.249325,22.8640577 C20.1390787,22.9026094 20.0243325,22.9382882 19.919336,22.982771 L10.4246525,22.982771 C10.1218501,21.5277223 8.97166969,20.3907251 7.49975001,20.0913934 L7.49975001,16.9776022 C8.97166969,16.6782705 10.1218501,15.5412734 10.4246525,14.0862247 L20.249325,14.0862247 L20.249325,14.9640173 C19.0800202,15.3711269 18.4659782,16.6382361 18.877902,17.7941384 C19.1947664,18.6834223 20.0455193,19.2777301 20.9993,19.2758767 C21.4134737,19.2758767 21.749275,19.6078291 21.749275,20.0172555 C21.749275,20.4265893 21.4134737,20.7586344 20.9993,20.7586344 C20.5851263,20.7586344 20.249325,20.4265893 20.249325,20.0172555 L18.749375,20.0172555 C18.7533124,20.9563972 19.3535736,21.7919312 20.249325,22.1049784 Z M32.6883166,27.4310441 L31.49895,28.6068709 L30.3095834,27.4310441 L32.6883166,27.4310441 Z M4.49985,11.1207093 L37.49875,11.1207093 L37.49875,22.6758401 L34.1882666,25.9482864 L28.8095397,25.9482864 L27.3095897,24.4655287 L32.248925,24.4655287 C32.6630987,24.4655287 32.9989,24.1334836 32.9989,23.7241498 C32.9989,22.4957777 34.0062102,21.5000133 35.248825,21.5000133 C35.6629987,21.5000133 35.9988,21.1679682 35.9988,20.7586344 L35.9988,16.3103613 C35.9988,15.9009348 35.6629987,15.5689824 35.248825,15.5689824 C34.0062102,15.5689824 32.9989,14.573218 32.9989,13.3448459 C32.9989,12.9354194 32.6630987,12.603467 32.248925,12.603467 L9.74967501,12.603467 C9.33550132,12.603467 8.99970001,12.9354194 8.99970001,13.3448459 C8.99970001,14.573218 7.99238984,15.5689824 6.74977501,15.5689824 C6.33560131,15.5689824 5.99980001,15.9009348 5.99980001,16.3103613 L5.99980001,20.7586344 C5.99980001,21.1679682 6.33560131,21.5000133 6.74977501,21.5000133 C7.99238984,21.5000133 8.99970001,22.4957777 8.99970001,23.7241498 C8.99970001,24.1334836 9.33550132,24.4655287 9.74967501,24.4655287 L17.6881604,24.4655287 L16.1882104,25.9482864 L10.8101397,25.9482864 L4.49985,19.7103247 L4.49985,11.1207093 Z M7.49975001,8.15519389 L40.49865,8.15519389 L40.49865,19.7103247 L38.9987,21.1930824 L38.9987,10.3793305 C38.9987,9.96990398 38.6628987,9.6379516 38.248725,9.6379516 L7.49975001,9.6379516 L7.49975001,8.15519389 Z M16.0224659,3.00261086 C17.0047457,2.02640026 18.3412011,1.47898465 19.7340922,1.48278421 L25.2644079,1.48278421 C26.6572989,1.47898465 27.9937544,2.02640026 28.9760341,3.00261086 L32.6884104,6.67243619 L12.3100897,6.67243619 L16.0224659,3.00261086 Z M41.9986,15.8759133 L43.1879667,17.0517401 L41.9986,18.227567 L41.9986,15.8759133 Z M44.9482517,16.7952231 C44.939252,16.7722403 44.9280024,16.7514817 44.9167528,16.7292403 C44.8875975,16.670208 44.8505675,16.615346 44.8065064,16.566137 C44.7960068,16.5542749 44.7915069,16.538706 44.7802573,16.5275853 L41.9986,13.7792939 L41.9986,7.41381504 C41.9986,7.00438857 41.6627987,6.67243619 41.248625,6.67243619 L34.8093397,6.67243619 L30.0364988,1.95430116 C28.7738221,0.698776076 27.0553482,-0.00497780003 25.2644079,2.6507231e-05 L19.7340922,2.6507231e-05 C17.9431519,-0.00497780003 16.2246779,0.698776076 14.9620013,1.95430116 L10.1891604,6.67243619 L6.74977501,6.67243619 C6.33560131,6.67243619 5.99980001,7.00438857 5.99980001,7.41381504 L5.99980001,9.6379516 L3.749875,9.6379516 C3.33570131,9.6379516 2.9999,9.96990398 2.9999,10.3793305 L2.9999,13.7792939 L0.219742675,16.5275853 C0.20849305,16.538706 0.2039932,16.5542749 0.19349355,16.566137 C0.149432519,16.615346 0.112402503,16.670208 0.0832472251,16.7292403 C0.0719976001,16.7514817 0.0607479751,16.7722403 0.0517482751,16.7952231 C0.0190306156,16.8769601 0.00149995,16.9638867 0,17.0517401 L0,42.2586211 C0,42.2682591 0.00524982501,42.2756729 0.00524982501,42.2853108 C0.00693726876,42.3734422 0.0243741875,42.4604615 0.0569981001,42.5425692 C0.0569981001,42.5484076 0.0644978501,42.5536899 0.0674977501,42.559621 C0.109965084,42.6563709 0.175587897,42.7416295 0.258741375,42.8078902 C0.306271041,42.8491294 0.358956785,42.8839742 0.41548615,42.9116832 C0.438547882,42.924472 0.462359588,42.9358707 0.486733776,42.9458793 C0.570449735,42.9794267 0.659603013,42.9977759 0.749975001,43 L44.248525,43 C44.3382408,42.9983319 44.4268316,42.9807241 44.5102663,42.9481035 C44.5358592,42.9380022 44.5608896,42.9266035 44.5852638,42.9140001 C44.6414182,42.886013 44.6939165,42.8511682 44.7412586,42.810207 C44.8241309,42.7441316 44.8894724,42.6591511 44.9317523,42.5625865 C44.9317523,42.5559141 44.940752,42.5507244 44.9430019,42.544052 C44.9759071,42.4621296 44.9934377,42.3748323 44.9947502,42.2867009 C44.9947502,42.2771556 45,42.2697418 45,42.2601039 L45,17.0517401 C44.9985,16.9638867 44.9809694,16.8769601 44.9482517,16.7952231 Z" id="Fill-1" fill="#FBCE20" mask="url(#mask-2)"></path>
                        </g>
                    </g>
                </g>
            </g>
        </g>
    </g>
</svg>