<?xml version="1.0" encoding="UTF-8"?>
<svg width="65px" height="65px" viewBox="0 0 65 65" version="1.1" xmlns="http://www.w3.org/2000/svg" xmlns:xlink="http://www.w3.org/1999/xlink">
    <!-- Generator: Sketch 49.3 (51167) - http://www.bohemiancoding.com/sketch -->
    <title>Page 1</title>
    <desc>Created with Sketch.</desc>
    <defs>
        <polygon id="path-1" points="0 65 65 65 65 0 0 0"></polygon>
    </defs>
    <g id="Page-1" stroke="none" stroke-width="1" fill="none" fill-rule="evenodd">
        <g id="Desktop-HD-Copy-8" transform="translate(-530.000000, -1644.000000)">
            <g id="вы-нам-подходите" transform="translate(0.000000, 1531.000000)">
                <g id="Group-3" transform="translate(100.000000, 40.000000)">
                    <g id="Group-6" transform="translate(430.000000, 73.000000)">
                        <g id="Page-1">
                            <path d="M29.5,62.8748444 C25.9841798,62.8748444 23.1250311,60.0156957 23.1250311,56.5 C23.1250311,52.9840553 25.9841798,50.1250311 29.5,50.1250311 C33.0158202,50.1250311 35.8749689,52.9840553 35.8749689,56.5 C35.8749689,60.0156957 33.0158202,62.8748444 29.5,62.8748444 M29.5,48 C24.8132773,48 21,51.8132773 21,56.5001245 C21,61.1867227 24.8132773,65 29.5,65 C34.1867227,65 38,61.1867227 38,56.5001245 C38,51.8132773 34.1867227,48 29.5,48" id="Fill-1" fill="#FBCE20"></path>
                            <path d="M6.5,62.833291 C4.11010742,62.833291 2.16670898,60.8897656 2.16670898,58.5 C2.16670898,56.1101074 4.11023438,54.166709 6.5,54.166709 C8.88976563,54.166709 10.833291,56.1102344 10.833291,58.5 C10.833291,60.8898926 8.88989258,62.833291 6.5,62.833291 M6.5,52 C2.91522461,52 0,54.9152246 0,58.5 C0,62.0847754 2.91522461,65 6.5,65 C10.0847754,65 13,62.0847754 13,58.5 C13,54.9152246 10.0847754,52 6.5,52" id="Fill-3" fill="#FBCE20"></path>
                            <mask id="mask-2" fill="white">
                                <use xlink:href="#path-1"></use>
                            </mask>
                            <g id="Clip-6"></g>
                            <path d="M46.2104445,51.7778646 L62.789426,51.7778646 L62.789426,36.2221354 L46.2104445,36.2221354 L46.2104445,51.7778646 Z M63.8947777,34 L45.1052223,34 C44.4940018,34 44,34.4966146 44,35.1110677 L44,52.8889323 C44,53.5033854 44.4940018,54 45.1052223,54 L63.8947777,54 C64.5059982,54 65,53.5033854 65,52.8889323 L65,35.1111979 C65,34.4967448 64.5059982,34 63.8947777,34 Z" id="Fill-5" fill="#FBCE20" mask="url(#mask-2)"></path>
                            <path d="M53.2855038,40.7500659 L56.7142283,40.7500659 L56.7142283,36.2499341 L53.2855038,36.2499341 L53.2855038,40.7500659 Z M57.8571811,34 L52.1428189,34 C51.5108064,34 51,34.5028272 51,35.124967 L51,41.875033 C51,42.4971728 51.5108064,43 52.1428189,43 L57.8571811,43 C58.4891936,43 59,42.4971728 59,41.875033 L59,35.124967 C59,34.502959 58.4891936,34 57.8571811,34 Z" id="Fill-7" fill="#FBCE20" mask="url(#mask-2)"></path>
                            <polygon id="Fill-8" fill="#FBCE20" mask="url(#mask-2)" points="11 63 24 63 24 61 11 61"></polygon>
                            <path d="M36.4517316,42.3126226 L31.2981932,47.3333333 L27.6863796,47.3333333 L19.193293,42.1621237 C19.0191817,42.0564996 18.8188961,42 18.612965,42 L1.09496331,42 C0.490642104,42 0,42.4767463 0,43.0666167 L0,58 L2.18979832,58 L2.18979832,44.1334833 L18.2988719,44.1334833 L26.791702,49.3048179 C26.9658132,49.4103171 27.1660989,49.4668167 27.37203,49.4668167 L31.7514983,49.4668167 C32.0415982,49.4668167 32.320792,49.3548175 32.5255683,49.1543191 L38,43.8209858 L36.4517316,42.3126226 Z" id="Fill-9" fill="#FBCE20" mask="url(#mask-2)"></path>
                            <path d="M37.8860001,39.3324298 L26.8441709,17.3876744 C26.1048258,15.9170622 24.6186288,15.0021495 22.9627043,15 L3.25713922,15 C1.46125953,15 0,16.4522785 0,18.2368388 L0,43.0526449 L2.17134133,43.0526449 L2.17134133,18.2369652 C2.17134133,17.642449 2.65876712,17.1580611 3.25713922,17.1580611 L22.9618137,17.1580611 C23.7890761,17.1591991 24.5327472,17.6166554 24.9019744,18.352404 L35.8284042,40.0704543 L35.8284042,56 L38,56 L38,39.8158061 C38,39.6486537 37.9608125,39.4825129 37.8860001,39.3324298" id="Fill-10" fill="#FBCE20" mask="url(#mask-2)"></path>
                            <path d="M29,57.0000781 C28.4489844,57.0000781 28.0000391,56.5521875 28.0000391,56.0002344 C28.0000391,55.4482813 28.4489844,55.0002734 29,55.0002734 C29.5510156,55.0002734 29.9999609,55.4482813 29.9999609,56.0002344 C29.9999609,56.5521875 29.5510156,57.0000781 29,57.0000781 M29,53 C27.3460156,53 26,54.3461328 26,56.0001172 C26,57.6539844 27.3460156,59 29,59 C30.6539844,59 32,57.6539844 32,56.0001172 C32,54.3461328 30.6539844,53 29,53" id="Fill-11" fill="#FBCE20" mask="url(#mask-2)"></path>
                            <path d="M17.8126167,37.6471537 L10.3750156,37.6471537 L10.3750156,29.1764852 C10.3750156,27.4251996 8.94487047,26 7.18750778,26 C5.43014509,26 4,27.4251996 4,29.1764852 L4,42.941213 L6.12504669,42.941213 L6.12504669,29.1764852 C6.12504669,28.5930542 6.60205225,28.1176982 7.18750778,28.1176982 C7.77296331,28.1176982 8.24996887,28.5930542 8.24996887,29.1764852 L8.24996887,38.7059407 C8.24996887,39.2914811 8.72597833,39.7647278 9.31242996,39.7647278 L17.8124922,39.7647278 C18.3979477,39.7647278 18.8749533,40.2390912 18.8749533,40.8235148 C18.8749533,41.4079385 18.3979477,41.8823018 17.8124922,41.8823018 L16.7500311,41.8823018 L16.7500311,44 L17.8124922,44 C19.5698549,44 21,42.5748004 21,40.8235148 C21,39.0722292 19.5699794,37.6471537 17.8126167,37.6471537" id="Fill-12" fill="#FBCE20" mask="url(#mask-2)"></path>
                            <polygon id="Fill-13" fill="#FBCE20" mask="url(#mask-2)" points="21 35.4564109 26.4563112 30 28 31.5435891 22.5435609 37"></polygon>
                            <polygon id="Fill-14" fill="#FBCE20" mask="url(#mask-2)" points="24 34.487031 25.487031 33 36 43.512969 34.5130922 45"></polygon>
                            <path d="M37.9998437,60.8276696 L39.9999219,60.8276696 L39.9999219,2.17245769 L37.9998437,2.17245769 L37.9998437,60.8276696 Z M41.0000195,0 L36.9999805,0 C36.4469619,0 36,0.486629503 36,1.0861652 L36,61.9138348 C36,62.5145161 36.4469619,63 36.9999805,63 L41.0000195,63 C41.5530381,63 42,62.5145161 42,61.9138348 L42,1.0861652 C42,0.486629503 41.5530381,0 41.0000195,0 Z" id="Fill-15" fill="#FBCE20" mask="url(#mask-2)"></path>
                            <polygon id="Fill-16" fill="#FBCE20" mask="url(#mask-2)" points="41 57 65 57 65 55 41 55"></polygon>
                            <polygon id="Fill-17" fill="#FBCE20" mask="url(#mask-2)" points="5 59 7 59 7 57 5 57"></polygon>
                        </g>
                    </g>
                </g>
            </g>
        </g>
    </g>
</svg>