<?xml version="1.0" encoding="UTF-8"?>
<svg width="90px" height="90px" viewBox="0 0 90 90" version="1.1" xmlns="http://www.w3.org/2000/svg" xmlns:xlink="http://www.w3.org/1999/xlink">
    <!-- Generator: Sketch 49.3 (51167) - http://www.bohemiancoding.com/sketch -->
    <title>Group 34</title>
    <desc>Created with Sketch.</desc>
    <defs>
        <polygon id="path-1" points="0 3.66617334e-05 39.998629 3.66617334e-05 39.998629 41.2903226 0 41.2903226"></polygon>
    </defs>
    <g id="Page-1" stroke="none" stroke-width="1" fill="none" fill-rule="evenodd">
        <g id="Desktop-HD-Copy-8" transform="translate(-100.000000, -922.000000)">
            <g id="Group-5" transform="translate(0.000000, 803.000000)">
                <g id="Group-24" transform="translate(100.000000, 106.000000)">
                    <g id="Group-34" transform="translate(0.000000, 13.000000)">
                        <g id="Group-4">
                            <circle id="Oval-Copy" fill="#233375" cx="45" cy="45" r="45"></circle>
                            <g id="Page-1" transform="translate(25.000000, 24.000000)">
                                <g id="Group-3">
                                    <mask id="mask-2" fill="white">
                                        <use xlink:href="#path-1"></use>
                                    </mask>
                                    <g id="Clip-2"></g>
                                    <path d="M38.8220484,31.7870323 C38.8220484,31.8675161 38.7565645,31.933 38.6759194,31.933 L31.287371,31.933 C30.0418871,31.933 28.9558387,31.2363065 28.3989032,30.2121935 C28.3735,30.1656613 28.3493871,30.1184032 28.3262419,30.0705806 C28.2799516,29.9747742 28.2383387,29.8765484 28.2014839,29.7759032 C28.0722097,29.4238065 28.0018065,29.0435645 28.0018065,28.6472742 C28.0018065,28.2509839 28.072371,27.8708226 28.2014839,27.5188065 C28.2384194,27.4182419 28.2800323,27.3198548 28.3262419,27.224129 C28.3493871,27.1763065 28.3735,27.1290484 28.3989032,27.0825161 C28.9558387,26.0584032 30.0418871,25.3617097 31.287371,25.3617097 L38.6759194,25.3617097 C38.7564839,25.3617097 38.8220484,25.4271935 38.8220484,25.5076774 L38.8220484,31.7870323 Z M36.8814032,38.6753387 C36.8814032,39.4684032 36.2362419,40.1136452 35.4430968,40.1136452 L2.6151129,40.1136452 C1.82196774,40.1136452 1.17672581,39.4684032 1.17672581,38.6753387 L1.17672581,37.0427581 L4.34946774,37.0427581 C4.67446774,37.0427581 4.93769355,36.779371 4.93769355,36.4544516 C4.93769355,36.1295323 4.6743871,35.8661452 4.34946774,35.8661452 L1.17672581,35.8661452 L1.17672581,21.4285645 L36.8814032,21.4285645 L36.8814032,24.1849355 L31.2872903,24.1849355 L31.2872097,24.1849355 C29.5247097,24.1849355 27.9978548,25.2124355 27.2733387,26.6996129 C27.2709194,26.7046129 27.2680968,26.7094516 27.2655968,26.7144516 C27.2595484,26.7271129 27.2542258,26.7402581 27.2481774,26.753 C27.1619677,26.9363065 27.0868871,27.1260645 27.0259194,27.321871 C27.0257581,27.3224355 27.0255968,27.3229194 27.0254355,27.3234032 C26.8951129,27.7419516 26.824871,28.1865484 26.824871,28.6472742 C26.824871,31.1079194 28.8267258,33.1096129 31.287129,33.1096129 L31.2872097,33.1096129 L36.8813226,33.1096129 L36.8813226,35.8661452 L8.11664516,35.8661452 C7.79172581,35.8661452 7.52833871,36.1295323 7.52833871,36.4544516 C7.52833871,36.7792903 7.79180645,37.0427581 8.11664516,37.0427581 L36.8814032,37.0427581 L36.8814032,38.6753387 Z M1.17672581,18.6192903 C1.17672581,17.8262258 1.82196774,17.1809839 2.6151129,17.1809839 L35.4430968,17.1809839 C36.2362419,17.1809839 36.8814032,17.8262258 36.8814032,18.6192903 L36.8814032,20.251871 L1.17672581,20.251871 L1.17672581,18.6192903 Z M2.70212903,15.7261452 C2.70212903,15.2756613 3.0685,14.9092097 3.51898387,14.9092097 L4.90962903,14.9092097 L4.80148387,16.0042903 L2.70212903,16.0042903 L2.70212903,15.7261452 Z M26.021,16.004371 L18.7068871,16.004371 C18.8754355,14.1342903 20.4506774,12.6637258 22.3639032,12.6637258 C24.277129,12.6636452 25.8525323,14.1342903 26.021,16.004371 Z M22.3639032,11.4869516 C19.8016452,11.4869516 17.6985,13.4847742 17.527129,16.0042903 L14.5449516,16.0042903 L21.4884194,5.81533871 C21.5279355,5.75735484 21.5932581,5.72283871 21.6604355,5.72283871 C21.6694677,5.72283871 21.6784194,5.72348387 21.6872903,5.72469355 C22.6339839,5.8571129 23.6157581,5.67598387 24.4522097,5.21412903 C24.5180968,5.17767742 24.6026129,5.18291935 24.6676935,5.22727419 L30.8772903,9.45896774 C30.942371,9.50332258 30.9780161,9.58009677 30.9683387,9.6546129 C30.8443871,10.6021129 31.034871,11.5822742 31.5045484,12.4146935 C31.542129,12.4815484 31.5376129,12.5671935 31.4928548,12.6329194 L29.1955161,16.0042097 L27.2008387,16.0042097 C27.0293871,13.4847742 24.9261613,11.4869516 22.3639032,11.4869516 Z M22.1047903,1.49574194 C22.2143871,1.33485484 22.3801935,1.22630645 22.5714032,1.19001613 C22.6172097,1.1813871 22.6630968,1.17703226 22.7085806,1.17703226 C22.8535,1.17703226 22.9951935,1.22041935 23.1176129,1.30380645 L35.0959194,9.46670968 C35.4280161,9.69308065 35.5140645,10.1474355 35.2878548,10.4795323 L31.5227742,16.0042097 L30.6192258,16.0042097 L32.4651935,13.2955806 C32.7645484,12.8563065 32.7891452,12.2972742 32.5293871,11.8365484 C32.1839839,11.2244516 32.0439839,10.5037258 32.1351935,9.80703226 C32.2029355,9.28872581 31.974871,8.78275806 31.5399516,8.48646774 L25.3305161,4.25485484 C24.8955968,3.95848387 24.3412419,3.93130645 23.8836613,4.18396774 C23.2687419,4.52348387 22.5467258,4.65679032 21.8507581,4.55937097 C21.3345484,4.48695161 20.8111613,4.72001613 20.5162419,5.15267742 L13.1211613,16.0042903 L12.2175323,16.0042903 L22.1047903,1.49574194 Z M34.9561613,14.909371 C35.4066452,14.9092903 35.7730161,15.2757419 35.7730161,15.7262258 L35.7730161,16.0259839 C35.664871,16.0122742 35.554871,16.0044516 35.4430968,16.0044516 L32.9467258,16.0044516 L33.6928548,14.909371 L34.9561613,14.909371 Z M38.6759194,24.1849355 L38.0580161,24.1849355 L38.0580161,18.6192903 C38.0580161,17.7381613 37.6195484,16.958 36.9497097,16.4839677 L36.9497097,15.7261452 C36.9497097,14.626871 36.0554355,13.7325968 34.9561613,13.7325968 L34.494871,13.7325968 L36.2600323,11.1422742 C36.8517258,10.2740484 36.6267258,9.08622581 35.7585806,8.49445161 L23.7801935,0.331548387 C23.3597097,0.0448548387 22.8526935,-0.0609516129 22.352371,0.0339677419 C21.8522903,0.128725806 21.4189839,0.412516129 21.132371,0.83316129 L10.7936613,16.004371 L7.91656452,16.004371 L8.61067742,8.97775806 C8.61858065,8.89856452 8.67003226,8.82993548 8.74172581,8.80291935 C9.63608065,8.46574194 10.4110806,7.83606452 10.9239032,7.02993548 C10.9643065,6.96646774 11.0405968,6.93017742 11.1194677,6.93816129 L15.6318871,7.38396774 C15.9555161,7.41533871 16.2432581,7.17969355 16.2751935,6.85630645 C16.307129,6.53291935 16.071,6.24493548 15.7475323,6.213 L11.2351129,5.76719355 C10.7113226,5.71590323 10.2117258,5.95727419 9.93108065,6.39824194 C9.55406452,6.99098387 8.98422581,7.4538871 8.32664516,7.70179032 C7.83180645,7.88840323 7.49196774,8.33291935 7.43962903,8.86203226 L6.73422581,16.0042903 L5.98398387,16.0042903 L7.08164516,4.89106452 C7.12124194,4.49106452 7.47817742,4.19719355 7.87874194,4.23727419 L16.9975323,5.13808065 C17.321,5.16929032 17.6089839,4.93380645 17.6409194,4.61041935 C17.6728548,4.28703226 17.4366452,3.99904839 17.1132581,3.9671129 L7.9943871,3.06630645 C6.94882258,2.96316129 6.01398387,3.72969355 5.91059677,4.77533871 L5.02583871,13.7325968 L3.51898387,13.7325968 C2.41979032,13.7325968 1.52535484,14.626871 1.52535484,15.7261452 L1.52535484,16.2430806 C0.62616129,16.6571129 -4.83870968e-05,17.5661452 -4.83870968e-05,18.6192903 L-4.83870968e-05,38.6753387 C-4.83870968e-05,40.1172742 1.17309677,41.2903387 2.6151129,41.2903387 L35.4430968,41.2903387 C36.8849516,41.2903387 38.0580161,40.1172742 38.0580161,38.6753387 L38.0580161,33.1096129 L38.6759194,33.1096129 C39.4052742,33.1096129 39.9986613,32.5163871 39.9986613,31.7871129 L39.9986613,25.5076774 C39.9987419,24.7783226 39.4052742,24.1849355 38.6759194,24.1849355 Z" id="Fill-1" fill="#FBCE20" mask="url(#mask-2)"></path>
                                </g>
                                <path d="M31.4252177,29.8576935 C30.757879,29.8576935 30.2148145,29.3147097 30.2148145,28.6472903 C30.2148145,27.9800323 30.757879,27.4368871 31.4252177,27.4368871 C32.0926371,27.4368871 32.6357016,27.9799516 32.6357016,28.6472903 C32.6357016,29.3147903 32.0926371,29.8576935 31.4252177,29.8576935 M31.4252177,26.2602742 C30.1090081,26.2602742 29.038121,27.3311613 29.038121,28.6472903 C29.038121,29.9635 30.1090081,31.0343871 31.4252177,31.0343871 C32.7415081,31.0343871 33.8123952,29.9635 33.8123952,28.6472903 C33.8123952,27.3311613 32.7415081,26.2602742 31.4252177,26.2602742" id="Fill-4" fill="#FBCE20"></path>
                            </g>
                        </g>
                    </g>
                </g>
            </g>
        </g>
    </g>
</svg>