<?xml version="1.0" encoding="UTF-8"?>
<svg width="90px" height="90px" viewBox="0 0 90 90" version="1.1" xmlns="http://www.w3.org/2000/svg" xmlns:xlink="http://www.w3.org/1999/xlink">
    <!-- Generator: Sketch 49.3 (51167) - http://www.bohemiancoding.com/sketch -->
    <title>Group 35</title>
    <desc>Created with Sketch.</desc>
    <defs>
        <polygon id="path-1" points="7.87401575e-06 0.0247459905 40.3148819 0.0247459905 40.3148819 39.921252 7.87401575e-06 39.921252"></polygon>
    </defs>
    <g id="Page-1" stroke="none" stroke-width="1" fill="none" fill-rule="evenodd">
        <g id="Desktop-HD-Copy-8" transform="translate(-760.000000, -921.000000)">
            <g id="Group-5" transform="translate(0.000000, 803.000000)">
                <g id="Group-35" transform="translate(760.000000, 118.000000)">
                    <g id="Group-29">
                        <circle id="Oval-Copy-6" fill="#233375" cx="45" cy="45" r="45"></circle>
                        <g id="Page-1" transform="translate(25.000000, 25.000000)">
                            <g id="Group-3" transform="translate(0.000000, 0.054016)">
                                <mask id="mask-2" fill="white">
                                    <use xlink:href="#path-1"></use>
                                </mask>
                                <g id="Clip-2"></g>
                                <path d="M38.5231575,16.269126 C38.5231575,16.4670787 38.3620551,16.6281811 38.1640236,16.6281811 L24.1888268,16.6281811 L24.1888268,10.804874 L38.1641024,10.804874 C38.3621339,10.804874 38.5232362,10.9659764 38.5232362,11.1640079 L38.5232362,16.269126 L38.5231575,16.269126 Z M35.3875669,37.7703858 C35.3875669,37.9684173 35.2264646,38.1294409 35.0285118,38.1294409 L24.1888268,38.1294409 L24.1888268,22.937 L27.6026063,22.937 C28.0974094,22.937 28.4985118,22.5358189 28.4985118,22.0410945 C28.4985118,21.5463701 28.0974094,21.145189 27.6026063,21.145189 L24.1888268,21.145189 L24.1888268,18.4198346 L35.3876457,18.4198346 L35.3876457,37.7703858 L35.3875669,37.7703858 Z M17.9178819,38.1293622 L22.3970157,38.1293622 L22.3970157,10.8047953 L17.9178819,10.8047953 L17.9178819,38.1293622 Z M16.1260709,16.6281811 L2.15087402,16.6281811 C1.95284252,16.6281024 1.7918189,16.4670787 1.7918189,16.269126 L1.7918189,11.1640866 C1.7918189,10.9659764 1.95292126,10.8049528 2.15087402,10.8049528 L16.1260709,10.8049528 L16.1260709,16.6281811 Z M16.1260709,21.1452677 L12.4377244,21.1452677 C11.9429213,21.1452677 11.5418189,21.5464488 11.5418189,22.0411732 C11.5418189,22.5358976 11.9429213,22.9370787 12.4377244,22.9370787 L16.1260709,22.9370787 L16.1260709,38.1294409 L5.28646457,38.1294409 C5.08843307,38.1294409 4.92740945,37.9684173 4.92740945,37.7704646 L4.92740945,18.4198346 L16.1260709,18.4198346 L16.1260709,21.1452677 Z M8.06512598,5.02873228 C8.10425984,3.87109449 8.73819685,2.83715748 9.76095276,2.26282677 C10.2886693,1.96652756 10.8663071,1.81849606 11.443315,1.81849606 C12.0194567,1.81849606 12.5949685,1.9662126 13.1185118,2.26180315 L15.6618189,3.69715748 C17.633315,4.80975591 18.9416614,6.79676378 19.2101654,9.01298425 L11.823315,9.01298425 C9.74985039,9.01298425 8.06292126,7.32605512 8.06292126,5.25259055 C8.063,5.25266929 8.06370866,5.07172441 8.06512598,5.02873228 Z M24.653,3.69715748 L27.1962283,2.26180315 C28.2442598,1.67030709 29.499378,1.67077953 30.5539449,2.26290551 C31.5767795,2.83715748 32.2107165,3.87109449 32.2497717,5.02881102 C32.251189,5.07180315 32.2518189,5.25266929 32.2518189,5.25266929 C32.2518189,7.3262126 30.5649685,9.01314173 28.4914252,9.01314173 L21.1045748,9.01314173 C21.3731575,6.79676378 22.6815039,4.80975591 24.653,3.69715748 Z M38.1640236,9.01306299 L32.5718189,9.01306299 C33.484811,8.02329921 34.0437874,6.70219685 34.0437874,5.25266929 C34.0437874,5.25266929 34.042685,5.03140945 34.0405591,4.96825984 C33.9801654,3.17944094 33.0046535,1.58416535 31.431189,0.700543307 C29.8259134,-0.200716535 27.9135512,-0.200480315 26.3156772,0.701409449 L23.7723701,2.13676378 C22.1795354,3.03574016 20.9329213,4.39070079 20.1574882,5.98392913 C19.3819764,4.39070079 18.1354409,3.03574016 16.542685,2.13684252 L13.999378,0.701330709 C12.4015039,-0.200480315 10.4891417,-0.200795276 8.88386614,0.700464567 C7.31040157,1.58400787 6.33488976,3.1793622 6.27449606,4.9681811 C6.27237008,5.03133071 6.27126772,5.25259055 6.27126772,5.25259055 C6.27126772,6.70211811 6.83024409,8.02322047 7.74323622,9.01306299 L2.15087402,9.01306299 C0.964889764,9.01306299 7.87401575e-06,9.97802362 7.87401575e-06,11.1640079 L7.87401575e-06,16.2690472 C7.87401575e-06,17.4550315 0.964889764,18.4199134 2.15087402,18.4199134 L3.13559843,18.4199134 L3.13559843,37.7703858 C3.13559843,38.9563701 4.10048031,39.921252 5.28646457,39.921252 L35.0284331,39.921252 C36.2144173,39.921252 37.1792992,38.9563701 37.1792992,37.7703858 L37.1792992,18.4198346 L38.1639449,18.4198346 C39.3500079,18.4198346 40.3148898,17.4549528 40.3148898,16.2689685 L40.3148898,11.1639291 C40.3149685,9.97802362 39.3500866,9.01306299 38.1640236,9.01306299 Z" id="Fill-1" fill="#FBCE20" mask="url(#mask-2)"></path>
                            </g>
                            <path d="M31.8580866,22.9909921 L31.9477717,22.9909921 C32.4424961,22.9909921 32.8436772,22.589811 32.8436772,22.0950866 C32.8436772,21.6004409 32.4424961,21.1991811 31.9477717,21.1991811 L31.8580866,21.1991811 C31.3633622,21.1991811 30.9621811,21.6004409 30.9621811,22.0950866 C30.9622598,22.589811 31.3633622,22.9909921 31.8580866,22.9909921" id="Fill-4" fill="#FBCE20"></path>
                            <path d="M8.09274016,22.9909921 L8.18234646,22.9909921 C8.67714961,22.9909921 9.07825197,22.589811 9.07825197,22.0950866 C9.07825197,21.6004409 8.67707087,21.1991811 8.18234646,21.1991811 L8.09274016,21.1991811 C7.59793701,21.1991811 7.19683465,21.6004409 7.19683465,22.0950866 C7.19683465,22.589811 7.59793701,22.9909921 8.09274016,22.9909921" id="Fill-6" fill="#FBCE20"></path>
                        </g>
                    </g>
                </g>
            </g>
        </g>
    </g>
</svg>