<?xml version="1.0" encoding="UTF-8"?>
<svg width="90px" height="90px" viewBox="0 0 90 90" version="1.1" xmlns="http://www.w3.org/2000/svg" xmlns:xlink="http://www.w3.org/1999/xlink">
    <!-- Generator: Sketch 49.3 (51167) - http://www.bohemiancoding.com/sketch -->
    <title>Group 38</title>
    <desc>Created with Sketch.</desc>
    <defs></defs>
    <g id="Page-1" stroke="none" stroke-width="1" fill="none" fill-rule="evenodd">
        <g id="Desktop-HD-Copy-8" transform="translate(-100.000000, -1221.000000)">
            <g id="Group-5" transform="translate(0.000000, 803.000000)">
                <g id="Group-32" transform="translate(100.000000, 418.000000)">
                    <g id="Group-38">
                        <g id="Group-30">
                            <circle id="Oval-Copy-7" fill="#233375" cx="45" cy="45" r="45"></circle>
                            <g id="Page-1" transform="translate(25.000000, 25.000000)" fill="#FBCE20">
                                <path d="M0.833333333,38.3333333 C1.2935719,38.3333333 1.66666667,38.7064281 1.66666667,39.1667495 C1.66666667,39.6269052 1.2935719,40 0.833333333,40 C0.373094765,40 0,39.6269052 0,39.1667495 C0,38.7064281 0.373094765,38.3333333 0.833333333,38.3333333" id="Fill-1"></path>
                                <path d="M20.8333333,18.3333333 C21.2935757,18.3333333 21.6666667,18.7064243 21.6666667,19.1666667 C21.6666667,19.626909 21.2935757,20 20.8333333,20 C20.373091,20 20,19.626909 20,19.1666667 C20,18.7064243 20.373091,18.3333333 20.8333333,18.3333333" id="Fill-3"></path>
                                <path d="M30.4168837,12.9172323 C29.7275259,13.6063387 28.6058074,13.6063387 27.9166057,12.9172323 C27.2272479,12.228126 27.2272479,11.1067678 27.9166057,10.4175834 C28.2505536,10.0837196 28.6944648,9.89989545 29.1666276,9.89989545 C29.6389466,9.89989545 30.0828578,10.0837196 30.4168057,10.4175834 C31.1061635,11.1067678 31.1061635,12.228126 30.4168837,12.9172323 M31.5247886,9.30987938 C30.8949779,8.68007116 30.0574936,8.33333333 29.1666276,8.33333333 C28.2758397,8.33333333 27.4383554,8.68022721 26.8085448,9.30987938 C25.5082629,10.6099121 25.5082629,12.7251377 26.8085448,14.0250925 C27.4588028,14.6751088 28.3125982,15 29.1666276,15 C30.0205791,15 30.8747647,14.6749528 31.5247886,14.0250925 C32.8250705,12.7250597 32.8250705,10.6098341 31.5247886,9.30987938" id="Fill-5"></path>
                                <path d="M9.57672342,32.3447862 C9.19923305,32.1568012 8.74098225,32.3104896 8.55299751,32.6879044 L7.64364419,34.5140657 C7.24820705,35.3081349 6.45292214,35.8390859 5.56790341,35.8996183 L4.51026116,35.9720138 C4.33147794,35.9838769 4.21391144,35.8949035 4.15953883,35.8405308 C4.10516623,35.7861581 4.01588869,35.6683633 4.02805599,35.489656 L4.1004514,34.4321645 C4.16105975,33.5472207 4.69201015,32.7518588 5.48592624,32.3563451 L7.31208536,31.4469907 C7.68957574,31.2590818 7.84318785,30.8006783 7.65520312,30.4232635 C7.46729444,30.0459248 7.00896759,29.8922364 6.63147721,30.0802214 L4.8053181,30.9895758 C3.52836033,31.6254699 2.67452029,32.9044825 2.57702983,34.3278298 L2.50463442,35.3853213 C2.46554698,35.9562724 2.67512866,36.5156645 3.07969127,36.9202276 C3.45216263,37.2926234 3.95596475,37.5 4.4791585,37.5 C4.52410146,37.5 4.56934859,37.4984791 4.61451968,37.4952852 L5.67216193,37.4228897 C7.09543144,37.3255512 8.37451848,36.4717861 9.01041182,35.1946747 L9.91976514,33.3685133 C10.1077499,32.9910225 9.95413775,32.5327711 9.57672342,32.3447862" id="Fill-7"></path>
                                <path d="M38.4124999,2.22293078 C38.0977997,8.69032165 35.0004087,14.6762162 29.9147342,18.6458301 L17.612674,28.2481731 C16.5924764,27.6486406 15.6415786,26.9405809 14.771309,26.1384537 L18.9188206,21.9666381 C19.225083,21.658581 19.225083,21.1589313 18.9188206,20.8508743 C18.61248,20.5427386 18.1158193,20.5427386 17.8094788,20.8508743 L13.6658737,25.018682 C12.904046,24.1703463 12.2293312,23.2473539 11.6548548,22.2599996 L21.7416692,9.76883572 C25.6037785,4.98617121 31.3248694,2.01797853 37.4381636,1.62552012 L38.1685056,1.57868287 C38.2642908,1.57271034 38.3282777,1.62049062 38.3578102,1.6497246 C38.3873426,1.67888 38.4359383,1.74229889 38.4312506,1.83903824 L38.4124999,2.22293078 Z M27.4899486,25.6331458 C27.4899486,28.800554 26.2637271,31.7783342 24.0369964,34.0181133 L20.6765479,37.3982538 L20.2076227,28.2200393 L27.4898705,22.535915 L27.4898705,25.6331458 L27.4899486,25.6331458 Z M14.4346548,29.2639756 C14.0251851,29.6075535 13.6054025,29.9600116 13.2158555,30.2822142 C12.4623875,29.8718382 11.7807974,29.3596147 11.1851483,28.7555242 C10.60825,28.170373 10.1172145,27.5042782 9.72126095,26.7703636 L11.414767,24.7481105 C11.9268189,25.439117 12.4873104,26.0936597 13.0928036,26.7068662 C13.0932724,26.7073377 13.0937411,26.7077306 13.0942099,26.7082021 C13.0943662,26.7083593 13.0945224,26.7086736 13.0946787,26.7088308 C13.0949131,26.708988 13.0951474,26.7091452 13.0953818,26.7093809 C13.7667371,27.3889925 14.4888757,28.0126509 15.2549223,28.5766625 C14.9844426,28.8025186 14.7073221,29.0351332 14.4346548,29.2639756 Z M2.58644103,19.2008829 L5.94688949,15.8207425 C8.17080759,13.5837924 11.1270209,12.3506211 14.2716794,12.3475563 L17.5597031,12.4446885 L11.7227482,19.6730275 L2.58644103,19.2008829 Z M39.4588703,0.525552077 C39.0908086,0.160834517 38.5836787,-0.0298936704 38.068736,0.0038197175 L37.3383158,0.050656965 C30.7897696,0.471170575 24.6610841,3.65068097 20.5239636,8.77401573 L18.8048316,10.9028315 L14.3059777,10.7699426 C14.2983211,10.7697068 14.2905864,10.7696283 14.283008,10.7696283 C10.7150512,10.7696283 7.36061856,12.1672014 4.83762586,14.7049001 L0.229783183,19.3398229 C0.010633692,19.5602566 -0.0589784995,19.8899248 0.0522760018,20.1808501 C0.163530503,20.4718541 0.434635222,20.6697336 0.744178995,20.6856079 L10.4980111,21.1896584 L10.1003388,21.6822354 C9.89994005,21.9304099 9.86822002,22.2757168 10.0201793,22.5566617 C10.172998,22.8391783 10.3331607,23.1172941 10.5001987,23.3909305 L8.18713638,26.1529921 C7.989394,26.389143 7.94681415,26.7196757 8.07799134,26.9988131 C8.58324615,28.0726906 9.25382016,29.0375693 10.0713532,29.8666515 C10.9087309,30.7160088 11.8879111,31.4106303 12.9815491,31.9312625 C13.0884284,31.9821076 13.2030424,32.0070194 13.3169533,32.0070194 C13.4936011,32.0070194 13.6687644,31.9469797 13.8112702,31.830751 C14.3095716,31.4241471 14.884048,30.9418649 15.4396954,30.4755357 C15.8357271,30.143117 16.2408997,29.803154 16.619665,29.4895173 C16.8456117,29.6264141 17.0744491,29.7589887 17.3067241,29.8860622 C17.4242288,29.9504241 17.5530622,29.9820157 17.6814268,29.9820157 C17.8522149,29.9820157 18.0219093,29.9260625 18.1623837,29.816435 L18.6970147,29.3990649 L19.2003163,39.2513899 C19.2162545,39.5627476 19.4129031,39.8354409 19.7021335,39.947426 C19.7936997,39.9827111 19.8888598,40 19.9833949,40 C20.1877,40 20.3884113,39.9196065 20.5382611,39.7688 L25.1461038,35.1339558 C27.6690965,32.5961785 29.0584496,29.2220892 29.0584496,25.6331458 L29.0584496,21.3113096 L30.8762575,19.8924396 C36.3241341,15.6401519 39.6419246,9.22800697 39.9792039,2.30002364 L39.9977984,1.91605251 C40.0232682,1.39707066 39.8267759,0.890348223 39.4588703,0.525552077 Z" id="Fill-9"></path>
                            </g>
                        </g>
                    </g>
                </g>
            </g>
        </g>
    </g>
</svg>