<?xml version="1.0" encoding="UTF-8"?>
<svg width="90px" height="90px" viewBox="0 0 90 90" version="1.1" xmlns="http://www.w3.org/2000/svg" xmlns:xlink="http://www.w3.org/1999/xlink">
    <!-- Generator: Sketch 49.3 (51167) - http://www.bohemiancoding.com/sketch -->
    <title>Group 36</title>
    <desc>Created with Sketch.</desc>
    <defs>
        <polygon id="path-1" points="0 40 33 40 33 0 0 0"></polygon>
    </defs>
    <g id="Page-1" stroke="none" stroke-width="1" fill="none" fill-rule="evenodd">
        <g id="Desktop-HD-Copy-8" transform="translate(-100.000000, -1071.000000)">
            <g id="Group-5" transform="translate(0.000000, 803.000000)">
                <g id="Group-36" transform="translate(100.000000, 268.000000)">
                    <g id="Group-28">
                        <circle id="Oval-Copy-5" fill="#233375" cx="45" cy="45" r="45"></circle>
                        <g id="Page-1" transform="translate(29.000000, 24.000000)">
                            <path d="M28.0471971,2 C27.6600687,2 27.2612213,2.04911645 26.8630964,2.14546027 L27.1693957,3.36770436 C29.5973159,2.78334448 31.7144417,4.59498603 31.7144417,6.85623204 C31.7144417,12.1526231 25.5640532,16.0561218 23,16.7909796 L23.3602389,18 C26.6172382,17.0661577 32.9993579,12.7054981 33,6.85623204 C33,4.17812586 30.7782059,2 28.0471971,2" id="Fill-1" fill="#FBCE20"></path>
                            <path d="M1.2837968,6.85619178 C1.2837968,4.59493759 3.40055231,2.7807707 5.8294265,3.36828118 L6.13704964,2.14540298 C2.92338321,1.37087147 0,3.79899627 0,6.85619178 C0,12.7061086 6.38366194,17.066784 9.63971485,18 L10,16.7909752 C7.43497527,16.0554851 1.2837968,12.152602 1.2837968,6.85619178" id="Fill-3" fill="#FBCE20"></path>
                            <path d="M18.6571173,25.4869715 C17.5814682,25.3344262 16.4185318,25.333736 15.3428827,25.4876618 L15.3428827,24.3805004 L15.3428827,24.3798102 L18.6571173,24.3798102 L18.6571173,25.4869715 Z M19.3285586,23 L14.6714414,23 C14.3008057,23 14,23.3085418 14,23.6902502 L14,26.3097498 C14,26.5175151 14.0919875,26.7156169 14.2497762,26.8467645 C14.3699642,26.9468507 14.5190242,27 14.6714414,27 C14.7184423,27 14.7661146,26.994478 14.8131155,26.9841242 C16.1962847,26.6769629 17.8043868,26.6769629 19.1868845,26.9841242 C19.3856312,27.0269198 19.5924351,26.9772217 19.7501399,26.8467645 C19.9079286,26.7156169 20,26.5188956 20,26.3097498 L20,23.6902502 C20,23.3085418 19.6998657,23 19.3285586,23 Z" id="Fill-5" fill="#FBCE20"></path>
                            <mask id="mask-2" fill="white">
                                <use xlink:href="#path-1"></use>
                            </mask>
                            <g id="Clip-8"></g>
                            <path d="M8.2416362,38.5950123 L23.7583638,38.5950123 L23.7583638,37.4049877 L8.2416362,37.4049877 L8.2416362,38.5950123 Z M24.3791819,36 L7.6208181,36 C7.27812651,36 7,36.3140148 7,36.7024939 L7,39.2975061 C7,39.6859852 7.27812651,40 7.6208181,40 L24.3791819,40 C24.7224943,40 25,39.6859852 25,39.2975061 L25,36.7024939 C25,36.3140148 24.7224943,36 24.3791819,36 Z" id="Fill-7" fill="#FBCE20" mask="url(#mask-2)"></path>
                            <path d="M10.2533292,36.7569147 L23.7466708,36.7569147 L23.7466708,29.2430853 L10.2533292,29.2430853 L10.2533292,36.7569147 Z M24.3733354,28 L9.62666458,28 C9.28074573,28 9,28.2778296 9,28.6215427 L9,37.3784573 C9,37.7221704 9.28074573,38 9.62666458,38 L24.3733354,38 C24.7192543,38 25,37.7215489 25,37.3784573 L25,28.6215427 C25,28.2779073 24.7198809,28 24.3733354,28 Z" id="Fill-9" fill="#FBCE20" mask="url(#mask-2)"></path>
                            <path d="M12.2547767,33.7637532 L20.7452233,33.7637532 L20.7452233,31.2361695 L12.2547767,31.2361695 L12.2547767,33.7637532 Z M21.3726116,30 L11.6273884,30 C11.28107,30 11,30.2763011 11,30.6181234 L11,34.3818766 C11,34.7236989 11.28107,35 11.6273884,35 L21.3726116,35 C21.71893,35 22,34.7230807 22,34.3818766 L22,30.6181234 C22,30.2763011 21.7195574,30 21.3726116,30 Z" id="Fill-10" fill="#FBCE20" mask="url(#mask-2)"></path>
                            <path d="M26.6907039,2.35399244 C26.674196,2.73141253 26.6538786,3.10442204 26.6284819,3.47617138 C26.3237214,7.98063925 25.3186467,12.0831138 23.722543,15.3406461 C23.4913536,15.8119487 23.2431802,16.2725398 22.9853242,16.7079276 C21.9021546,18.5332799 20.6438271,19.9081224 19.3339919,20.6995074 L14.2990153,20.6995074 C14.3002851,20.7001375 13.8723506,20.6995074 13.668542,20.6995074 C12.3580719,19.9074923 11.099665,18.5332799 10.0171304,16.7072975 C9.75808394,16.2706496 9.50983113,15.8113186 9.279356,15.3406461 C7.68380785,12.0843739 6.67936806,7.98189942 6.37333773,3.47617138 C6.34857594,3.10505213 6.3270681,2.73141253 6.30921104,2.29728491 C6.29524286,1.95262917 6.28071911,1.60797342 6.27429057,1.26016726 L26.7268942,1.26016726 C26.720545,1.62750601 26.7053863,1.99043418 26.6907039,2.35399244 M27.6907786,0.316932066 C27.4875256,0.11278497 27.2170506,0 26.928798,0 L6.07365658,0 C5.78667378,0 5.51619885,0.112154886 5.31302519,0.315041815 C5.10985153,0.518558827 4.99874093,0.787604537 5.00001076,1.0736625 C5.00445519,1.50274946 5.02159797,1.92490549 5.04128041,2.4056593 C5.05723272,2.79379081 5.07937548,3.17814183 5.1054071,3.56060259 C5.42223103,8.22700195 6.46984522,12.4907779 8.13586924,15.8913392 C8.38094747,16.3916256 8.64570815,16.8818307 8.92189734,17.3468324 C10.1943518,19.491007 11.6514085,21.0290411 13.2545757,21.9193493 C13.4228289,22.0126017 13.6228279,22.0244945 13.7980652,21.9552641 C13.9453661,21.9603047 14.1117146,21.9603047 14.2983804,21.9603047 L19.2139131,21.9603047 C19.2856588,21.9867682 19.361214,22 19.4368486,22 C19.5434354,22 19.6501016,21.9735365 19.7473233,21.9199794 C21.3497762,21.0302225 22.8075473,19.4916371 24.0799223,17.3474625 C24.3542861,16.8830908 24.6184119,16.3935159 24.8646806,15.8925994 C26.5319744,12.4901478 27.5795886,8.22574178 27.895857,3.56123267 C27.9211743,3.17877191 27.9433965,2.79568106 27.9592694,2.40439913 C27.977682,1.96397067 27.9954597,1.52291213 27.9999041,1.07681292 C28.0037136,0.790754955 27.8938729,0.521079161 27.6907786,0.316932066" id="Fill-11" fill="#FBCE20" mask="url(#mask-2)"></path>
                            <path d="M23.7087724,3 C23.6984316,3.19853784 23.6867982,3.38569453 23.6737914,3.57095436 C23.404284,7.48859909 22.4930003,11.18115 21.1074128,13.9682671 C20.9134419,14.3577554 20.7028287,14.7434499 20.4811476,15.112705 C19.7152008,16.3848647 18.8569137,17.3724956 18,17.9693736 L18.7496278,19 C19.7540596,18.3006916 20.7370826,17.1783837 21.5953697,15.7544754 C21.8345009,15.3555029 22.0619179,14.9407232 22.2700267,14.5215175 C23.7262225,11.5908714 24.6827472,7.73202924 24.9638072,3.65441612 C24.9767332,3.46156886 24.9884474,3.26998617 25,3.06575776 L23.7087724,3 Z" id="Fill-12" fill="#FBCE20" mask="url(#mask-2)"></path>
                            <path d="M18.5245814,23.7446796 L14.4748476,23.7446796 C14.390016,23.5388071 14.3071419,23.1968107 14.3045317,23.0693957 C14.3064894,22.9167958 14.4011093,22.4975188 14.4944242,22.2553204 L18.5050048,22.2553204 C18.5989722,22.4975188 18.6928581,22.9167958 18.6948973,23.0680619 C18.6928581,23.1968107 18.6094131,23.5395132 18.5245814,23.7446796 M18.7627626,21 L14.2073016,21 C13.1090576,21 13,23.0479768 13,23.068768 C13,23.0882255 13.1279816,25 14.2366664,25 L18.79278,25 C19.8720999,25 20,23.0882255 20,23.068768 C20,23.0479768 19.8910239,21 18.7627626,21" id="Fill-13" fill="#FBCE20" mask="url(#mask-2)"></path>
                            <path d="M12.6591973,26.9192993 C13.0381271,26.6680364 13.6598662,26.4217042 14.5029543,26.2606122 C15.7666667,26.0201563 17.2351728,26.0201563 18.4964326,26.2606122 C19.3401338,26.4217042 19.9618729,26.6680364 20.3408793,26.9192993 L12.6591973,26.9192993 Z M18.7557971,25.2042273 C17.3234671,24.9324986 15.677146,24.9313504 14.2442029,25.2042273 C12.2128205,25.5917261 11,26.4351454 11,27.4596497 C11,27.7585309 11.2746934,28 11.613155,28 L21.386845,28 C21.7253066,28 22,27.7585309 22,27.4596497 C22,26.4346051 20.7871795,25.5917261 18.7557971,25.2042273 Z" id="Fill-14" fill="#FBCE20" mask="url(#mask-2)"></path>
                        </g>
                    </g>
                </g>
            </g>
        </g>
    </g>
</svg>