<?xml version="1.0" encoding="UTF-8"?>
<svg width="90px" height="90px" viewBox="0 0 90 90" version="1.1" xmlns="http://www.w3.org/2000/svg" xmlns:xlink="http://www.w3.org/1999/xlink">
    <!-- Generator: Sketch 49.3 (51167) - http://www.bohemiancoding.com/sketch -->
    <title>Group 37</title>
    <desc>Created with Sketch.</desc>
    <defs>
        <polygon id="path-1" points="0.00975717439 0.0236537561 1.31854037 0.0236537561 1.31854037 2.64885544 0.00975717439 2.64885544"></polygon>
        <polygon id="path-3" points="0.067134054 0.00489518562 44.4375636 0.00489518562 44.4375636 34.7849354 0.067134054 34.7849354"></polygon>
    </defs>
    <g id="Page-1" stroke="none" stroke-width="1" fill="none" fill-rule="evenodd">
        <g id="Desktop-HD-Copy-8" transform="translate(-760.000000, -1071.000000)">
            <g id="Group-5" transform="translate(0.000000, 803.000000)">
                <g id="Group-25" transform="translate(760.000000, 268.000000)">
                    <g id="Group-37">
                        <g id="Group-10">
                            <circle id="Oval-Copy-2" fill="#233375" cx="45" cy="45" r="45"></circle>
                            <g id="Page-1" transform="translate(22.000000, 25.000000)">
                                <path d="M7.44721118,10.44489 C5.84223426,10.44489 4.53640779,9.13923741 4.53640779,7.53417352 C4.53640779,5.92910964 5.8421473,4.62345709 7.44721118,4.62345709 C9.05227507,4.62345709 10.3580146,5.9291966 10.3580146,7.53417352 C10.3580146,9.13915044 9.05218811,10.44489 7.44721118,10.44489 M7.44712422,3.31458693 C5.12053381,3.31458693 3.22753763,5.20749615 3.22753763,7.53417352 C3.22753763,9.86093786 5.12044685,11.7537601 7.44712422,11.7537601 C9.77388855,11.7537601 11.6667978,9.86085089 11.6667978,7.53417352 C11.6667978,5.20749615 9.77388855,3.31458693 7.44712422,3.31458693" id="Fill-1" fill="#FBCE20"></path>
                                <g id="Group-5" transform="translate(6.783062, 0.063309)">
                                    <mask id="mask-2" fill="white">
                                        <use xlink:href="#path-1"></use>
                                    </mask>
                                    <g id="Clip-4"></g>
                                    <path d="M0.664148772,0.0236363636 C0.302646331,0.0236363636 0.00975717439,0.316612482 0.00975717439,0.678027962 L0.00975717439,1.99446384 C0.00975717439,2.35587932 0.302646331,2.64885544 0.664148772,2.64885544 C1.02565121,2.64885544 1.31854037,2.35587932 1.31854037,1.99446384 L1.31854037,0.678027962 C1.31854037,0.316612482 1.02565121,0.0236363636 0.664148772,0.0236363636" id="Fill-3" fill="#FBCE20" mask="url(#mask-2)"></path>
                                </g>
                                <path d="M12.7132765,2.26813432 C12.4576072,2.01263897 12.0433186,2.01255201 11.7876493,2.26813432 L10.8568045,3.1989792 C10.6012222,3.45456151 10.6012222,3.86893705 10.8568045,4.1244324 C10.9846391,4.25226704 11.1520416,4.3160974 11.319618,4.3160974 C11.4870205,4.3160974 11.654597,4.25226704 11.7824316,4.12451937 L12.7132765,3.19367449 C12.9688588,2.93809218 12.9688588,2.52371664 12.7132765,2.26813432" id="Fill-6" fill="#FBCE20"></path>
                                <path d="M14.239996,6.87977323 L12.9236471,6.87977323 C12.5621446,6.87977323 12.2692555,7.17274935 12.2692555,7.53416483 C12.2692555,7.89558031 12.5621446,8.18855643 12.9236471,8.18855643 L14.239996,8.18855643 C14.6014984,8.18855643 14.8943876,7.89558031 14.8943876,7.53416483 C14.8943876,7.17274935 14.6014984,6.87977323 14.239996,6.87977323" id="Fill-8" fill="#FBCE20"></path>
                                <path d="M12.7132765,11.8746291 L11.7824316,10.9438712 C11.5266754,10.6882888 11.1123868,10.6882888 10.8568045,10.9438712 C10.6012222,11.1994535 10.6012222,11.613829 10.8568045,11.8693244 L11.7876493,12.8001692 C11.915484,12.9279169 12.0829734,12.9918342 12.2504629,12.9918342 C12.4179524,12.9918342 12.5854418,12.9280039 12.7132765,12.8001692 C12.9688588,12.5445869 12.9688588,12.1302114 12.7132765,11.8746291" id="Fill-10" fill="#FBCE20"></path>
                                <path d="M7.44721118,12.3562352 C7.08570874,12.3562352 6.79281959,12.6492113 6.79281959,13.0106268 L6.79281959,14.3270627 C6.79281959,14.6884782 7.08570874,14.9814543 7.44721118,14.9814543 C7.80871363,14.9814543 8.10160278,14.6884782 8.10160278,14.3270627 L8.10160278,13.0106268 C8.10160278,12.6492113 7.80871363,12.3562352 7.44721118,12.3562352" id="Fill-12" fill="#FBCE20"></path>
                                <path d="M4.03767877,10.9438625 C3.78209646,10.6882802 3.36780788,10.6882802 3.1121386,10.9438625 L2.18129373,11.8746204 C1.92562446,12.1302027 1.92562446,12.5445782 2.18120677,12.8001605 C2.30904141,12.9279082 2.47644391,12.9918255 2.64402034,12.9918255 C2.81142284,12.9918255 2.97899926,12.9279952 3.1068339,12.8001605 L4.03767877,11.8693157 C4.29317413,11.6137334 4.29317413,11.1993578 4.03767877,10.9438625" id="Fill-14" fill="#FBCE20"></path>
                                <path d="M1.97074921,6.87977323 L0.654400294,6.87977323 C0.292897853,6.87977323 8.69623386e-06,7.17274935 8.69623386e-06,7.53416483 C8.69623386e-06,7.89558031 0.292897853,8.18855643 0.654400294,8.18855643 L1.97074921,8.18855643 C2.33225166,8.18855643 2.62514081,7.89558031 2.62514081,7.53416483 C2.62514081,7.17274935 2.33225166,6.87977323 1.97074921,6.87977323" id="Fill-16" fill="#FBCE20"></path>
                                <path d="M4.03767877,3.19898789 L3.10674694,2.26814302 C2.85107766,2.01256071 2.43678908,2.01256071 2.18120677,2.26814302 C1.92562446,2.52372533 1.92562446,2.93810088 2.18120677,3.19368319 L3.11205164,4.12452806 C3.23988628,4.25227574 3.40737574,4.31610609 3.57486521,4.31610609 C3.74226771,4.31610609 3.90984414,4.25227574 4.03767877,4.1244411 C4.29317413,3.86885879 4.29317413,3.45448324 4.03767877,3.19898789" id="Fill-18" fill="#FBCE20"></path>
                                <g id="Group-22" transform="translate(0.086962, 4.585350)">
                                    <mask id="mask-4" fill="white">
                                        <use xlink:href="#path-3"></use>
                                    </mask>
                                    <g id="Clip-21"></g>
                                    <path d="M25.9648846,25.9110636 C25.661473,25.884714 25.3559743,25.8622777 25.0487364,25.8425373 C24.7091484,25.8191444 24.3688648,25.8020998 24.0287551,25.7882728 L29.1613593,12.9109767 C29.4719888,12.9999391 29.7777483,13.1057723 30.0771597,13.2269108 C30.1257716,13.2466513 30.8756479,13.5901525 30.8742565,13.593631 L25.9648846,25.9110636 Z M26.2039441,11.2651274 C26.2109011,11.2503438 26.2181189,11.2357342 26.2251629,11.2209506 C26.8347689,9.94486521 27.5458599,8.7113914 28.3753937,7.56505385 C28.5781898,7.28486119 28.520099,6.86196334 28.2289491,6.6512536 C27.9441474,6.44506589 27.5207278,6.51350525 27.3149749,6.79778514 C26.6490173,7.71810757 26.0572386,8.69217272 25.5261596,9.69615292 C25.3343207,10.0589598 25.1394381,10.4261148 24.9749053,10.8024008 C24.9720356,10.8084882 24.9689919,10.8145756 24.9661221,10.8206629 C23.9664031,9.73876447 22.7029273,8.87792428 21.2597873,8.30292929 C19.990398,7.79698241 18.6692662,7.54713961 17.3695271,7.56070573 C18.2432377,6.57811827 19.6784641,5.14376146 21.546763,3.90280888 C23.3992347,2.67220483 25.3112757,1.86902067 27.2297518,1.51534484 C29.085789,1.173235 30.9586099,1.25350124 32.8169951,1.75275202 C32.8095164,1.75683925 32.8015158,1.7613613 32.7940371,1.76544852 C31.7886655,2.3171376 30.8565162,2.99805271 30.0101987,3.77106094 C29.6800896,4.07255937 29.3580681,4.38249314 29.0495257,4.70590608 C28.8001177,4.9674888 28.8099445,5.38177738 29.0715272,5.63118536 C29.3330229,5.88059335 29.7473115,5.87076661 29.9968065,5.60909693 C30.8356452,4.72929895 31.782752,3.92463643 32.8168212,3.27407118 C33.2932878,2.97413807 33.7907994,2.70307646 34.3102254,2.48471403 C34.4466693,2.79421299 34.6241595,3.25241755 34.7908663,3.85254465 C35.5798756,6.69525654 35.3667309,9.76294 34.6750324,12.6016516 C34.5262399,13.2121272 34.3543153,13.8172981 34.1592588,14.4145555 C34.1573456,14.4207298 34.1551716,14.4270781 34.1531714,14.4333394 C33.2626771,13.4911894 32.1691257,12.7218336 30.9309559,12.1682313 C30.9140852,12.1606656 30.8971276,12.1530999 30.8800829,12.1456211 C29.4158981,11.499317 27.8044859,11.1767737 26.2039441,11.2651274 Z M44.1208817,32.6383832 C42.9802836,31.8648532 41.6577604,31.5144819 40.3518469,31.5850953 C39.1465489,29.9246364 36.8727447,28.5013238 33.7400134,27.4522102 C31.7954485,26.8009492 29.6253034,26.3310047 27.3179316,26.0519426 L32.0065061,14.2884601 C32.7138578,14.7993638 33.3313773,15.406187 33.8360198,16.0926677 C34.0028136,16.3196394 34.2601351,16.4480828 34.5438932,16.3789478 C36.0925186,16.0980594 37.7346284,16.2780714 39.2945588,16.8997652 C40.8662292,17.5261549 42.189622,18.5352659 43.1215974,19.8179604 C43.2465623,19.9898849 43.4445756,20.0876306 43.6509372,20.0876306 C43.7032885,20.0876306 43.7561616,20.0813693 43.808426,20.068238 C44.0671389,20.0042337 44.261065,19.7895237 44.2988066,19.5258539 C44.323417,19.3527119 44.8900635,15.2333929 43.5402341,10.7457014 C43.4362272,10.3995913 43.0704636,10.2034912 42.7250492,10.3074982 C42.379026,10.4115921 42.182839,10.776573 42.2869329,11.1225962 C43.0748987,13.7422496 43.1609044,16.2751147 43.1125533,17.8203485 C42.1785778,16.916375 41.0481544,16.1896307 39.779113,15.6838578 C38.3364078,15.1088628 36.8270025,14.8644117 35.3576868,14.9620704 C35.368818,14.928242 35.3789056,14.8951963 35.3898629,14.8615419 C35.9012014,13.2993505 36.2825313,11.6894167 36.470109,10.0551335 C36.6415988,8.55964212 36.6576868,7.04901933 36.4694133,5.55431066 C36.3603626,4.68868754 36.1747849,3.83254331 35.9085063,3.00153121 C35.9065931,2.9955308 35.9046799,2.98909559 35.9026798,2.98309519 C38.2508368,4.25526724 40.0558271,6.12982741 41.2809526,8.57338217 C41.4428764,8.89644725 41.8361201,9.02697772 42.1591852,8.86505385 C42.4822503,8.70312998 42.6126938,8.30988628 42.4508569,7.98673423 C40.8269222,4.74773497 38.2789257,2.41792695 34.8754806,1.06122751 C30.1944719,-0.804201619 25.3224938,-0.190595358 20.78706,2.83578099 C17.4014422,5.09480166 15.4189618,7.86559569 15.3361737,7.98229915 C15.1821634,8.199705 15.1754673,8.48885477 15.3190421,8.71321761 C15.4626169,8.93758044 15.7275042,9.05263161 15.9898696,9.00384574 C17.5488434,8.71400027 19.2035628,8.89183825 20.7751462,9.51822798 C22.3239454,10.1355736 23.631772,11.1245093 24.5615733,12.3807673 C24.742455,12.6251314 25.0062987,12.7754024 25.3159716,12.6833962 C26.1470707,12.536082 27.0046063,12.5214723 27.8617071,12.6360887 L22.6331835,25.7547923 C22.5013486,25.7535748 22.3698615,25.7513138 22.2375048,25.7513138 C19.2213031,25.7513138 16.3387625,26.0516817 13.6699752,26.6443301 C13.317169,26.7226831 13.0946324,27.0721848 13.1730724,27.4250779 C13.2514255,27.7778841 13.6003184,28.0004208 13.9537334,27.9220677 C16.4932076,27.3582039 19.357747,27.060184 22.2375048,27.060184 C23.6024657,27.060184 24.9682962,27.1250579 26.3266479,27.2600234 C26.3315178,27.2604582 26.3363008,27.2603713 26.3412576,27.2607191 C28.8672527,27.5110837 31.2346284,27.9931159 33.3242464,28.6929888 C35.8188481,29.528523 37.744803,30.6294662 38.8751395,31.8496348 C38.3048405,32.026777 37.7532383,32.2894033 37.2386822,32.6382092 C35.5946592,33.7532404 33.4700823,33.7532404 31.8259723,32.6382092 C29.7354846,31.2205492 27.0340866,31.2206362 24.9438598,32.6382092 C23.2998368,33.7532404 21.1752599,33.7532404 19.5311499,32.6382092 C17.4407492,31.2205492 14.7393511,31.2206362 12.6490374,32.6382092 C11.0050144,33.7532404 8.88043749,33.7532404 7.23632751,32.6382092 C6.72185832,32.2894033 6.1702562,32.0266031 5.59995719,31.8496348 C6.72881531,30.6311185 8.65129173,29.5314797 11.1409365,28.6963804 C11.4835681,28.5815901 11.6681892,28.2105218 11.5533119,27.8678902 C11.4384347,27.5252585 11.0676273,27.3404636 10.7248217,27.4555148 C7.59756907,28.5041936 5.32724329,29.9265496 4.12324972,31.5849214 C2.81733628,31.514308 1.49489999,31.8648532 0.35430196,32.6382092 C0.0551515152,32.8410924 -0.0228537026,33.2480761 0.180029433,33.5472266 C0.382825607,33.846377 0.789461502,33.9243822 1.0889598,33.7214991 C2.06032912,33.0627594 3.19953575,32.793524 4.30821861,32.9132711 C4.34804736,32.9218804 4.38822396,32.927359 4.42857449,32.9282286 C5.15453609,33.0253656 5.8643227,33.2892963 6.5018436,33.7215861 C8.59207037,35.1391591 11.2933815,35.13942 13.3838692,33.7215861 C15.0280661,32.6066419 17.1527299,32.6067289 18.796666,33.7215861 C20.8869797,35.1391591 23.5882909,35.13942 25.6786916,33.7215861 C27.3228015,32.6066419 29.4474654,32.6067289 31.0914884,33.7215861 C32.1366887,34.430503 33.334595,34.7849615 34.5325012,34.7849615 C35.7304943,34.7849615 36.9284006,34.430503 37.9736879,33.7215861 C38.6097304,33.2902529 39.3177778,33.0264961 40.0420871,32.9290113 C40.0849595,32.9281417 40.127658,32.9224022 40.1700957,32.9130102 C41.2779089,32.7939588 42.415985,33.0633681 43.3864847,33.7214991 C43.6856352,33.9243822 44.0926189,33.846464 44.2954151,33.5472266 C44.4979504,33.248337 44.4199451,32.8412663 44.1208817,32.6383832 Z" id="Fill-20" fill="#FBCE20" mask="url(#mask-4)"></path>
                                </g>
                            </g>
                        </g>
                    </g>
                </g>
            </g>
        </g>
    </g>
</svg>