<?xml version="1.0" encoding="UTF-8"?>
<svg width="90px" height="90px" viewBox="0 0 90 90" version="1.1" xmlns="http://www.w3.org/2000/svg" xmlns:xlink="http://www.w3.org/1999/xlink">
    <!-- Generator: Sketch 49.3 (51167) - http://www.bohemiancoding.com/sketch -->
    <title>Group 39</title>
    <desc>Created with Sketch.</desc>
    <defs></defs>
    <g id="Page-1" stroke="none" stroke-width="1" fill="none" fill-rule="evenodd">
        <g id="Desktop-HD-Copy-8" transform="translate(-760.000000, -1221.000000)">
            <g id="Group-5" transform="translate(0.000000, 803.000000)">
                <g id="Group-23" transform="translate(760.000000, 418.000000)">
                    <g id="Group-39">
                        <g id="Group-13">
                            <circle id="Oval-Copy-3" fill="#233375" cx="45" cy="45" r="45"></circle>
                            <g id="Page-1" transform="translate(25.000000, 25.000000)" fill="#FBCE20">
                                <path d="M1.40350877,38.5964912 L39.2982456,38.5964912 L39.2982456,11.9298246 L1.40350877,11.9298246 L1.40350877,38.5964912 Z M30.1045614,2.80701754 C29.7782456,1.2077193 28.3614035,0 26.6666667,0 C26.2792982,0 25.9649123,0.313684211 25.9649123,0.701754386 C25.9649123,1.08982456 26.2792982,1.40350877 26.6666667,1.40350877 C27.8273684,1.40350877 28.7719298,2.34807018 28.7719298,3.50877193 C28.7719298,4.66947368 27.8273684,5.61403509 26.6666667,5.61403509 C26.2792982,5.61403509 25.9649123,5.9277193 25.9649123,6.31578947 C25.9649123,6.70385965 26.2792982,7.01754386 26.6666667,7.01754386 C28.3607018,7.01754386 29.7782456,5.80982456 30.1045614,4.21052632 L39.2982456,4.21052632 L39.2982456,10.5263158 L1.40350877,10.5263158 L1.40350877,4.21052632 L11.2280702,4.21052632 L13.3333333,4.21052632 C13.7207018,4.21052632 14.0350877,3.89684211 14.0350877,3.50877193 C14.0350877,3.12070175 13.7207018,2.80701754 13.3333333,2.80701754 L12.0589474,2.80701754 C12.3494737,1.99157895 13.1214035,1.40350877 14.0350877,1.40350877 C15.1957895,1.40350877 16.1403509,2.34807018 16.1403509,3.50877193 C16.1403509,4.66947368 15.1957895,5.61403509 14.0350877,5.61403509 C13.6477193,5.61403509 13.3333333,5.9277193 13.3333333,6.31578947 C13.3333333,6.70385965 13.6477193,7.01754386 14.0350877,7.01754386 C15.9698246,7.01754386 17.5438596,5.44350877 17.5438596,3.50877193 C17.5438596,1.57403509 15.9698246,0 14.0350877,0 C12.3410526,0 10.9235088,1.2077193 10.597193,2.80701754 L0,2.80701754 L0,11.9298246 L0,40 L40.7017544,40 L40.7017544,11.9298246 L40.7017544,2.80701754 L30.1045614,2.80701754 Z" id="Fill-1"></path>
                                <path d="M18.245614,1.40350877 C19.4063158,1.40350877 20.3508772,2.34807018 20.3508772,3.50877193 C20.3508772,4.66947368 19.4063158,5.61403509 18.245614,5.61403509 C17.8582456,5.61403509 17.5438596,5.9277193 17.5438596,6.31578947 C17.5438596,6.70385965 17.8582456,7.01754386 18.245614,7.01754386 C20.1803509,7.01754386 21.754386,5.44350877 21.754386,3.50877193 C21.754386,1.57403509 20.1803509,0 18.245614,0 C17.8582456,0 17.5438596,0.313684211 17.5438596,0.701754386 C17.5438596,1.08982456 17.8582456,1.40350877 18.245614,1.40350877" id="Fill-3"></path>
                                <path d="M22.4561404,1.40350877 C23.6168421,1.40350877 24.5614035,2.34807018 24.5614035,3.50877193 C24.5614035,4.66947368 23.6168421,5.61403509 22.4561404,5.61403509 C22.0687719,5.61403509 21.754386,5.9277193 21.754386,6.31578947 C21.754386,6.70385965 22.0687719,7.01754386 22.4561404,7.01754386 C24.3908772,7.01754386 25.9649123,5.44350877 25.9649123,3.50877193 C25.9649123,1.57403509 24.3908772,0 22.4561404,0 C22.0687719,0 21.754386,0.313684211 21.754386,0.701754386 C21.754386,1.08982456 22.0687719,1.40350877 22.4561404,1.40350877" id="Fill-4"></path>
                                <path d="M6.31578947,17.5438596 L21.754386,17.5438596 C22.1417544,17.5438596 22.4561404,17.2301754 22.4561404,16.8421053 C22.4561404,16.4540351 22.1417544,16.1403509 21.754386,16.1403509 L6.31578947,16.1403509 C5.92842105,16.1403509 5.61403509,16.4540351 5.61403509,16.8421053 C5.61403509,17.2301754 5.92842105,17.5438596 6.31578947,17.5438596" id="Fill-5"></path>
                                <path d="M34.3859649,27.3684211 L23.8596491,27.3684211 C23.4722807,27.3684211 23.1578947,27.6821053 23.1578947,28.0701754 C23.1578947,28.4582456 23.4722807,28.7719298 23.8596491,28.7719298 L34.3859649,28.7719298 C34.7733333,28.7719298 35.0877193,28.4582456 35.0877193,28.0701754 C35.0877193,27.6821053 34.7733333,27.3684211 34.3859649,27.3684211" id="Fill-6"></path>
                                <path d="M6.31578947,23.1578947 L13.3333333,23.1578947 C13.7207018,23.1578947 14.0350877,22.8442105 14.0350877,22.4561404 C14.0350877,22.0680702 13.7207018,21.754386 13.3333333,21.754386 L6.31578947,21.754386 C5.92842105,21.754386 5.61403509,22.0680702 5.61403509,22.4561404 C5.61403509,22.8442105 5.92842105,23.1578947 6.31578947,23.1578947" id="Fill-7"></path>
                                <path d="M34.3859649,32.9824561 L27.3684211,32.9824561 C26.9810526,32.9824561 26.6666667,33.2961404 26.6666667,33.6842105 C26.6666667,34.0722807 26.9810526,34.3859649 27.3684211,34.3859649 L34.3859649,34.3859649 C34.7733333,34.3859649 35.0877193,34.0722807 35.0877193,33.6842105 C35.0877193,33.2961404 34.7733333,32.9824561 34.3859649,32.9824561" id="Fill-8"></path>
                                <path d="M19.6491228,22.4561404 C19.6491228,22.8442105 19.9635088,23.1578947 20.3508772,23.1578947 L30.877193,23.1578947 C31.2645614,23.1578947 31.5789474,22.8442105 31.5789474,22.4561404 C31.5789474,22.0680702 31.2645614,21.754386 30.877193,21.754386 L20.3508772,21.754386 C19.9635088,21.754386 19.6491228,22.0680702 19.6491228,22.4561404" id="Fill-9"></path>
                                <path d="M17.3403509,22.954386 C17.4666667,22.8210526 17.5438596,22.6385965 17.5438596,22.4561404 C17.5438596,22.2729825 17.4666667,22.0905263 17.3403509,21.9578947 C17.0807018,21.6982456 16.6035088,21.6982456 16.3438596,21.9578947 C16.2175439,22.0905263 16.1403509,22.2729825 16.1403509,22.4561404 C16.1403509,22.6385965 16.2175439,22.8210526 16.3438596,22.954386 C16.477193,23.0870175 16.6596491,23.1578947 16.8421053,23.1578947 C17.0245614,23.1578947 17.2070175,23.0870175 17.3403509,22.954386" id="Fill-10"></path>
                                <path d="M9.12280702,28.0701754 C9.12280702,28.4582456 9.43719298,28.7719298 9.8245614,28.7719298 L20.3508772,28.7719298 C20.7382456,28.7719298 21.0526316,28.4582456 21.0526316,28.0701754 C21.0526316,27.6821053 20.7382456,27.3684211 20.3508772,27.3684211 L9.8245614,27.3684211 C9.43719298,27.3684211 9.12280702,27.6821053 9.12280702,28.0701754" id="Fill-11"></path>
                                <path d="M6.31578947,28.7719298 C6.49824561,28.7719298 6.68070175,28.6947368 6.81403509,28.5684211 C6.94035088,28.4350877 7.01754386,28.2526316 7.01754386,28.0701754 C7.01754386,27.8870175 6.94035088,27.7045614 6.81403509,27.5789474 C6.55438596,27.3122807 6.07719298,27.3122807 5.81754386,27.5719298 C5.69122807,27.7045614 5.61403509,27.8870175 5.61403509,28.0701754 C5.61403509,28.2526316 5.69122807,28.4350877 5.81754386,28.5684211 C5.95087719,28.6947368 6.12631579,28.7719298 6.31578947,28.7719298" id="Fill-12"></path>
                                <path d="M34.3859649,23.1578947 C34.5684211,23.1578947 34.7508772,23.0870175 34.8842105,22.954386 C35.0175439,22.8210526 35.0877193,22.6385965 35.0877193,22.4561404 C35.0877193,22.2729825 35.0175439,22.0905263 34.8842105,21.9578947 C34.6175439,21.6982456 34.1473684,21.6982456 33.8877193,21.9578947 C33.7614035,22.0905263 33.6842105,22.2729825 33.6842105,22.4561404 C33.6842105,22.6385965 33.7614035,22.8210526 33.8877193,22.954386 C34.0210526,23.0870175 34.2035088,23.1578947 34.3859649,23.1578947" id="Fill-13"></path>
                                <path d="M23.8596491,32.9824561 L6.31578947,32.9824561 C5.92842105,32.9824561 5.61403509,33.2961404 5.61403509,33.6842105 C5.61403509,34.0722807 5.92842105,34.3859649 6.31578947,34.3859649 L23.8596491,34.3859649 C24.2470175,34.3859649 24.5614035,34.0722807 24.5614035,33.6842105 C24.5614035,33.2961404 24.2470175,32.9824561 23.8596491,32.9824561" id="Fill-14"></path>
                            </g>
                        </g>
                    </g>
                </g>
            </g>
        </g>
    </g>
</svg>