<?xml version="1.0" encoding="UTF-8"?>
<svg width="410px" height="63px" viewBox="0 0 410 63" version="1.1" xmlns="http://www.w3.org/2000/svg" xmlns:xlink="http://www.w3.org/1999/xlink">
    <!-- Generator: Sketch 49.3 (51167) - http://www.bohemiancoding.com/sketch -->
    <title>Group 33</title>
    <desc>Created with Sketch.</desc>
    <defs></defs>
    <g id="Page-1" stroke="none" stroke-width="1" fill="none" fill-rule="evenodd">
        <g id="Desktop-HD-Copy-8" transform="translate(0.000000, -40.000000)">
            <g id="шапка" transform="translate(-108.000000, 0.000000)">
                <g id="Group-33" transform="translate(0.000000, 40.000000)">
                    <g id="Page-1">
                        <polygon id="Fill-1" fill="#233375" points="0 0 0 63 507.263152 63 518 31.5 507.263152 0"></polygon>
                        <polygon id="Fill-2" fill="#FBCE20" points="463 16 439 16 439 24.006851 447.07552 24.006851 447.07552 48 454.92832 48 454.92832 24.006851 463 24.006851"></polygon>
                        <polygon id="Fill-3" fill="#FBCE20" points="427.902418 27.2943479 416.474035 27.2943479 416.474035 16 408.376453 16 408.376453 27.2943479 406 27.2943479 406 35.2943479 408.376453 35.2943479 408.376453 48 416.474035 48 416.474035 35.2943479 427.902418 35.2943479 427.902418 48 436 48 436 16 427.902418 16"></polygon>
                        <polygon id="Fill-4" fill="#FBCE20" points="388.003261 35.2949381 403.051936 35.2949381 403.051936 27.2946934 387.994456 27.2946934 387.994456 23.9973085 403.515695 24.0070959 403.522544 16 380 16 380 48 403.992173 48 404 39.9938829 388.003261 39.9938829"></polygon>
                        <polygon id="Fill-5" fill="#FBCE20" points="345 48 353.594331 48 361.872745 23.9970639 368.409643 23.9970639 368.399708 48 377 48 377 16 355.98457 16"></polygon>
                        <path d="M474.092363,30.5945681 L475.999503,25.0560313 L477.907637,30.5945681 L474.092363,30.5945681 Z M481.015311,16 L470.986677,16 L465.971862,30.5945681 L460.475046,30.5945681 L460.475046,38.5828236 L463.230908,38.5828236 L460,48 L468.120501,48 L471.342464,38.5828236 L480.648592,38.5828236 L483.879499,48 L492,48 L481.015311,16 Z" id="Fill-6" fill="#FBCE20"></path>
                        <g id="Group-11" transform="translate(308.000000, 7.000000)">
                            <path d="M27.4403983,18.836286 L26.1228494,19.128326 L25.9763472,20.227886 L24.4696068,20.140666 L23.8583728,21.053046 L22.3128238,20.601266 L21.3028323,21.220626 L19.8737089,20.445446 L18.5532494,20.728666 L17.3860834,19.718286 L15.8667302,19.611466 L15.0808579,18.452126 L13.5372494,17.981726 L13.1976749,16.793966 L11.775343,16.008986 L11.9043813,14.909426 L10.7459472,13.868666 L11.3494196,12.956286 L10.5751898,11.789106 L11.5851813,11.159946 L11.2446366,9.961406 L12.5670366,9.667406 L12.7125685,8.567846 L14.2193089,8.647226 L14.8315132,7.742686 L16.3654196,8.195446 L17.3860834,7.577066 L18.8055047,8.344406 L20.1366366,8.068046 L21.3028323,9.077446 L22.8095728,9.187206 L23.6051472,10.334786 L25.1506962,10.815966 L25.4912409,12.003726 L26.9096919,12.778906 L26.7719217,13.898066 L27.9255047,14.919226 L27.3365855,15.832586 L28.113726,17.009566 L27.1124664,17.636766 L27.4403983,18.836286 Z M32.5747643,13.340446 C32.2536238,13.250286 35.7881089,11.524506 35.7822877,10.815966 C35.8075132,9.156826 32.2536238,7.802466 28.528977,7.872046 C28.2010451,7.880866 28.4552409,6.056106 27.6373515,4.348946 C27.0144749,3.308186 26.8815557,3.092586 23.1064579,4.584146 C22.6718026,3.092586 20.8439217,-1.649634 17.3860834,2.904426 C16.8117174,2.207646 16.3848238,1.248226 15.3166196,0.765086 C14.9867472,1.000286 14.2862536,1.797026 13.6352409,2.847586 C12.8483983,2.385026 11.1786621,1.295266 9.69035574,1.482446 C9.44780255,1.667666 9.38958979,2.582006 9.25084936,3.996146 C8.96269617,4.052986 6.90293447,3.347386 5.32342809,3.768786 C5.25745362,4.013786 5.97056,5.643526 6.48962383,6.381466 C5.3476834,6.310906 3.32381957,6.968486 2.79214298,7.480046 C2.81833872,7.773066 2.85132596,8.726606 5.29723234,10.669946 C3.92050043,11.060966 2.67474723,12.270286 2.62817702,12.564286 C2.37204085,14.193046 5.55918979,15.929606 6.34603234,16.380406 C5.55918979,17.823946 4.95571745,19.816286 5.32342809,20.563046 C6.94077277,21.857626 8.76574298,22.055586 10.1560579,21.907606 C10.0114962,22.270206 9.9532834,22.594586 9.93290894,22.791566 C9.92417702,22.850366 9.91350468,22.919946 9.90477277,22.986586 C9.86499404,23.350166 9.65057702,23.969526 9.53318128,24.193946 C9.37988766,24.509506 9.37988766,24.684926 9.38958979,24.853486 L9.38958979,24.871126 L9.39444085,24.880926 C9.4739983,25.588486 11.1786621,26.175506 12.4574026,26.175506 C12.7125685,26.175506 13.4014196,26.175506 13.7293515,26.125526 L13.7429345,26.125526 C15.2962451,25.863866 16.2586962,25.518906 16.8903047,25.078886 C17.124126,24.920126 17.2686877,24.781946 17.3860834,24.675126 C17.9303728,25.715886 19.3003132,27.480866 22.778526,28.904806 C23.2840068,28.560826 24.4502026,26.431286 24.4967728,26.235286 C24.8965004,26.726266 27.5306281,28.542206 29.6379302,28.129626 C30.5877685,27.346606 30.444177,23.831346 30.444177,23.831346 C30.444177,23.831346 32.4767728,24.585946 33.9320919,24.449726 C34.352194,24.410526 34.9808919,24.390926 35.2040409,23.744126 C35.3030026,23.506966 35.4310706,22.419166 35.1846366,21.485226 C34.8877515,20.307266 33.4188494,18.971526 33.4411643,18.952906 C33.4469855,18.933306 35.9171472,18.638326 37.2376068,16.951746 C37.4141855,16.137366 34.6733345,13.985286 32.5747643,13.340446 Z" id="Fill-7" fill="#FBCE20"></path>
                            <path d="M16.1427557,41.34375 C17.5126962,39.05349 20.2409345,36.02235 26.8228579,36.85535 C26.8228579,36.85535 19.1921345,37.78929 16.1427557,41.34375 M1.94563234,31.90047 C7.91923234,30.79013 11.255794,34.30441 12.6257345,36.82693 C7.65727489,31.79267 1.94563234,31.90047 1.94563234,31.90047 M28.3567643,36.24775 C23.7628068,32.40909 20.1167472,35.25403 19.2416153,35.73521 C17.7620409,36.67993 16.7462281,37.60113 16.0156579,38.48705 C16.4503132,36.30459 17.1430451,33.24307 17.3273855,32.08667 C17.5786706,30.55395 18.2519983,26.25469 17.3167132,25.75489 C17.07416,25.66767 17.0343813,25.63827 16.9490026,26.51929 C16.9490026,26.51929 16.8500409,28.25781 15.4606962,32.39047 C14.8970026,34.29167 14.5360834,35.26579 14.2343472,36.17719 C13.7812579,34.54745 12.5558791,32.58647 9.6568834,30.54317 C8.78563234,30.02181 5.13957277,26.88385 0.547555745,31.13509 C0.155589787,31.56335 -0.249959149,32.28267 0.76003234,32.89909 C1.76323234,33.51943 2.09116426,33.89085 2.3531217,34.65623 C2.60634723,35.42259 3.71433021,38.07349 7.4147217,38.37631 C11.1956409,38.68109 11.9630791,39.21029 12.5956579,39.74047 C12.5956579,39.74047 12.9420238,40.07367 13.2777174,40.27261 C13.2641345,40.35885 13.2447302,40.44705 13.2379387,40.53819 C13.2379387,40.53819 12.6810366,45.40585 13.9170877,47.26883 C15.2879983,49.33957 16.7326451,48.75353 16.7326451,48.75353 C16.7326451,48.75353 15.8012409,47.30901 15.5305515,44.61989 C15.9002026,44.45231 16.326126,44.07893 16.326126,44.07893 C17.1246111,43.44095 17.7271132,43.11853 21.4934791,42.82257 C25.1977515,42.54817 26.3067047,40.14227 26.5599302,39.45823 C26.8112153,38.76047 27.1391472,38.42433 28.1423472,37.85495 C29.1523387,37.29635 28.7361174,36.64073 28.3567643,36.24775" id="Fill-9" fill="#4AA241"></path>
                        </g>
                    </g>
                </g>
            </g>
        </g>
    </g>
</svg>