<?xml version="1.0" encoding="UTF-8"?>
<svg width="73px" height="62px" viewBox="0 0 73 62" version="1.1" xmlns="http://www.w3.org/2000/svg" xmlns:xlink="http://www.w3.org/1999/xlink">
    <!-- Generator: Sketch 51.2 (57519) - http://www.bohemiancoding.com/sketch -->
    <title>Group 35</title>
    <desc>Created with Sketch.</desc>
    <defs>
        <polygon id="path-1" points="0 0.102860412 72.6407323 0.102860412 72.6407323 61.858081 0 61.858081"></polygon>
    </defs>
    <g id="Page-1" stroke="none" stroke-width="1" fill="none" fill-rule="evenodd">
        <g id="Desktop-HD-Copy-9" transform="translate(-960.000000, -1715.000000)">
            <g id="вы-нам-подходите" transform="translate(0.000000, 1599.000000)">
                <g id="Group-3" transform="translate(100.000000, 40.000000)">
                    <g id="Group-6" transform="translate(430.000000, 76.000000)">
                        <g id="Group-35" transform="translate(430.000000, 0.000000)">
                            <g id="Page-1">
                                <g id="Group-3">
                                    <mask id="mask-2" fill="white">
                                        <use xlink:href="#path-1"></use>
                                    </mask>
                                    <g id="Clip-2"></g>
                                    <path d="M64.0121767,32.0227446 L38.9939707,57.0391062 C37.5395954,58.4933396 35.1730966,58.4933396 33.7188632,57.0389643 L8.53835057,31.858168 C5.43778307,28.7577423 3.73015835,24.6353808 3.73015835,20.2502641 C3.73015835,15.8651474 5.43778307,11.7427858 8.53835057,8.64221831 C11.6393437,5.54094142 15.7624146,3.83303295 20.1473895,3.83303295 C24.5308037,3.83303295 28.6528815,5.54094142 31.7541584,8.64221831 L33.7215588,10.6094769 L30.7090966,13.6242092 C29.9808449,14.3530284 29.9814124,15.533724 30.7099478,16.2618339 C31.0741446,16.6258888 31.5511332,16.8076325 32.0282636,16.8076325 C32.5061034,16.8076325 32.9833757,16.6251794 33.3475725,16.2608407 L40.960378,8.64207643 C44.0617968,5.54079954 48.1844421,3.83289108 52.5697007,3.83289108 C57.0229181,3.83289108 61.1920989,5.58875378 64.3095497,8.77685904 C70.5655908,15.1750604 70.4320851,25.602978 64.0121767,32.0227446 M66.9769684,6.16917025 C63.1521217,2.25735332 58.035632,0.102959725 52.5701263,0.102959725 C47.1886114,0.102959725 42.1290142,2.19904211 38.3227533,6.00530297 L36.3581904,7.97100092 L34.3920668,6.00473547 C30.5859478,2.19875835 25.5272018,0.102817849 20.1473895,0.102817849 C14.7660165,0.102817849 9.70627735,2.19875835 5.90058398,6.00473547 C2.09545812,9.80971945 -5.67505721e-05,14.8688911 -5.67505721e-05,20.2504059 C-5.67505721e-05,25.6319208 2.09545812,30.6910924 5.90058398,34.4962183 L31.0810966,59.6764471 C32.5358975,61.1308224 34.4459799,61.858081 36.3566297,61.858081 C38.266854,61.8579391 40.1776458,61.1308224 41.6318792,59.676589 L66.650227,34.6606531 C74.5080531,26.8024014 74.6547533,14.0214632 66.9769684,6.16917025" id="Fill-1" fill="#FBCE20" mask="url(#mask-2)"></path>
                                </g>
                                <path d="M65.8117349,19.0070276 C65.6048649,15.6938063 64.1868398,12.5781313 61.8187878,10.2337934 C60.1420678,8.57406511 58.0614863,7.36809792 55.8022379,6.7455581 C54.8008157,6.46978699 53.7633166,7.04981328 53.4847223,8.04108713 C53.2061279,9.03221928 53.7920923,10.0593462 54.7935145,10.3351173 C56.4294331,10.785619 57.9383665,11.6615395 59.1573957,12.8682153 C60.8759191,14.5693234 61.9049717,16.8309016 62.0551492,19.2364589 C62.1168522,20.2243317 62.945334,20.9846154 63.9318672,20.9846154 C63.9708074,20.9846154 64.0101772,20.9834817 64.04969,20.9809309 C65.087046,20.9178691 65.8758717,20.0340128 65.8117349,19.0070276" id="Fill-4" fill="#FBCE20"></path>
                            </g>
                        </g>
                    </g>
                </g>
            </g>
        </g>
    </g>
</svg>