<?xml version="1.0" encoding="UTF-8"?>
<svg width="73px" height="56px" viewBox="0 0 73 56" version="1.1" xmlns="http://www.w3.org/2000/svg" xmlns:xlink="http://www.w3.org/1999/xlink">
    <!-- Generator: Sketch 49.3 (51167) - http://www.bohemiancoding.com/sketch -->
    <title>Page 1</title>
    <desc>Created with Sketch.</desc>
    <defs>
        <polygon id="path-1" points="0 0 73 0 73 56 0 56"></polygon>
    </defs>
    <g id="Page-1" stroke="none" stroke-width="1" fill="none" fill-rule="evenodd">
        <g id="Desktop-HD-Copy-8" transform="translate(-100.000000, -1653.000000)">
            <g id="вы-нам-подходите" transform="translate(0.000000, 1531.000000)">
                <g id="Group-3" transform="translate(100.000000, 40.000000)">
                    <g id="Group-20" transform="translate(0.000000, 82.000000)">
                        <g id="Page-1">
                            <mask id="mask-2" fill="white">
                                <use xlink:href="#path-1"></use>
                            </mask>
                            <g id="Clip-2"></g>
                            <path d="M69.4043528,19.3270606 L59.3699885,24.3010915 C58.95189,24.3010915 58.6174112,24.4697027 58.4501718,24.8069251 L40.3046964,33.6590139 C38.5486827,34.5861648 35.1202749,34.5861648 33.2806415,33.6590139 L10.954181,22.8678961 L36.6254296,19.8328942 C37.3780069,19.7485886 37.8797251,19.0741438 37.7961054,18.3996989 C37.7124857,17.6409484 37.0435281,17.1351148 36.3745704,17.2194204 L6.60595647,20.7602559 L3.59564719,19.3270606 C2.84306987,18.9898382 2.67583047,18.5683101 2.67583047,18.5683101 C2.67583047,18.4840045 2.84306987,18.1467821 3.59564719,17.8095597 L33.3642612,3.39330072 C34.2840779,2.97177268 35.5383734,2.71885585 36.792669,2.71885585 C38.1305842,2.71885585 39.4684994,2.97177268 40.3046964,3.39330072 L69.4043528,17.725254 C70.1569301,18.0624765 70.3241695,18.3996989 70.3241695,18.5683101 C70.3241695,18.5683101 70.0733104,18.9898382 69.4043528,19.3270606 Z M58.0320733,43.6070756 C56.6941581,45.2931878 49.5028637,53.3865262 36.4581901,53.3865262 C23.4135166,53.3865262 16.2222222,45.2931878 14.884307,43.6070756 L14.884307,27.6733158 L32.1935853,36.0195709 C33.4478809,36.6097102 35.1202749,36.9469326 36.792669,36.9469326 C38.5486827,36.9469326 40.2210767,36.6097102 41.4753723,35.9352653 L58.0320733,27.7576214 L58.0320733,43.6070756 Z M70.5750286,15.2803914 L41.4753723,0.948438088 C38.9667812,-0.316146029 34.7021764,-0.316146029 32.1935853,0.948438088 L2.42497136,15.2803914 C0.334478809,16.2920587 0,17.725254 0,18.4840045 C0,19.242755 0.334478809,20.5916447 2.42497136,21.6876176 L4.84994273,22.8678961 L4.84994273,36.3567934 C3.34478809,36.9469326 2.25773196,38.4644336 2.25773196,40.1505457 C2.25773196,41.8366579 3.34478809,43.3541588 4.76632302,43.9442981 L1.00343643,56 L11.5395189,56 L7.7766323,43.9442981 C9.28178694,43.3541588 10.2852234,41.8366579 10.2852234,40.1505457 C10.2852234,38.3799172 9.19816724,36.9469326 7.6930126,36.3567934 L7.6930126,24.3010915 L12.1248568,26.4930373 L12.1248568,44.0286037 C12.1248568,44.2813097 12.2084765,44.5344373 12.3757159,44.7873542 C12.7938144,45.2931878 20.5704467,56 36.4581901,56 C52.3459336,56 60.1225659,45.2088822 60.4570447,44.7873542 C60.6242841,44.5344373 60.7079038,44.2813097 60.7079038,44.0286037 L60.7079038,26.5773429 L70.5750286,21.6876176 C72.6655212,20.6759503 73,19.242755 73,18.4840045 C72.9163803,17.725254 72.6655212,16.2920587 70.5750286,15.2803914 Z" id="Fill-1" fill="#FBCE20" mask="url(#mask-2)"></path>
                        </g>
                    </g>
                </g>
            </g>
        </g>
    </g>
</svg>